STARTFONT 2.1
FONT -FontForge-Syncopate-Book-R-Normal--32-320-72-72-P-239-ISO10646-1
SIZE 32 72 72
FONTBOUNDINGBOX 58 37 -6 -8
COMMENT "Generated by fontforge, http://fontforge.sourceforge.net"
COMMENT "Copyright (c) 2010 by Brian J. Bonislawsky DBA Astigmatic (AOETI). All rights reserved. Available under the Apache 2.0 licence.http://www.apache.org/licenses/LICENSE-2.0.html"
STARTPROPERTIES 39
FOUNDRY "FontForge"
FAMILY_NAME "Syncopate"
WEIGHT_NAME "Book"
SLANT "R"
SETWIDTH_NAME "Normal"
ADD_STYLE_NAME ""
PIXEL_SIZE 32
POINT_SIZE 320
RESOLUTION_X 72
RESOLUTION_Y 72
SPACING "P"
AVERAGE_WIDTH 239
CHARSET_REGISTRY "ISO10646"
CHARSET_ENCODING "1"
FONTNAME_REGISTRY ""
CHARSET_COLLECTIONS "ISO8859-2 ISO8859-9 ISO8859-4 ISO10646-1"
FONT_NAME "Syncopate-Regular"
FACE_NAME "Syncopate Regular"
COPYRIGHT "Copyright (c) 2010 by Brian J. Bonislawsky DBA Astigmatic (AOETI). All rights reserved. Available under the Apache 2.0 licence.http://www.apache.org/licenses/LICENSE-2.0.html"
FONT_VERSION "001.001"
FONT_ASCENT 26
FONT_DESCENT 6
UNDERLINE_POSITION -3
UNDERLINE_THICKNESS 2
X_HEIGHT 21
CAP_HEIGHT 21
RAW_ASCENT 799
RAW_DESCENT 200
NORM_SPACE 12
RELATIVE_WEIGHT 40
RELATIVE_SETWIDTH 70
SUPERSCRIPT_X 0
SUPERSCRIPT_Y 9
SUPERSCRIPT_SIZE 6
SUBSCRIPT_X 0
SUBSCRIPT_Y 9
SUBSCRIPT_SIZE 6
AVG_LOWERCASE_WIDTH 274
AVG_UPPERCASE_WIDTH 262
ENDPROPERTIES
CHARS 370
STARTCHAR space
ENCODING 32
SWIDTH 375 0
DWIDTH 12 0
BBX 1 1 0 0
BITMAP
00
ENDCHAR
STARTCHAR exclam
ENCODING 33
SWIDTH 274 0
DWIDTH 9 0
BBX 2 22 3 0
BITMAP
C0
C0
C0
C0
C0
C0
C0
C0
C0
C0
C0
C0
C0
C0
C0
C0
00
00
00
C0
C0
C0
ENDCHAR
STARTCHAR quotedbl
ENCODING 34
SWIDTH 290 0
DWIDTH 9 0
BBX 7 6 1 16
BITMAP
C6
C6
C6
C6
C6
C6
ENDCHAR
STARTCHAR numbersign
ENCODING 35
SWIDTH 701 0
DWIDTH 22 0
BBX 19 22 2 0
BITMAP
018180
030300
030300
030300
030300
070700
7FFFE0
060600
060600
060600
0C0C00
0C0C00
0C0C00
0C0C00
FFFF80
181800
181800
181800
181800
383800
303000
303000
ENDCHAR
STARTCHAR dollar
ENCODING 36
SWIDTH 767 0
DWIDTH 25 0
BBX 19 26 3 -2
BITMAP
00C000
00C000
0FFE00
3FFF80
78C180
E0C000
C0C000
C0C000
C0C000
E0C000
78C000
3FC000
0FF000
00FE00
00CF80
00C1C0
00C0E0
00C060
00C060
00C060
80C0C0
F0C3C0
7FFF00
0FFC00
00C000
00C000
ENDCHAR
STARTCHAR percent
ENCODING 37
SWIDTH 992 0
DWIDTH 32 0
BBX 27 22 2 0
BITMAP
1F800600
30C00C00
60601800
C0303000
C0303000
C0306000
C030C000
C0318000
60630000
30C30000
1F860000
000C3F00
00186180
0018C0C0
00318060
00618060
00C18060
01818060
01818060
0300C0C0
06006180
0C003F00
ENDCHAR
STARTCHAR ampersand
ENCODING 38
SWIDTH 926 0
DWIDTH 30 0
BBX 25 22 2 0
BITMAP
01FC0000
07FF0000
0E038000
1C018000
18018000
18030000
18060000
0C1C0000
06700000
03C00000
0F800000
1CC00000
30600300
60380300
C01C0600
C0060600
C0038C00
C001D800
60007000
7C01F800
1FFF8E00
07FC0780
ENDCHAR
STARTCHAR quotesingle
ENCODING 39
SWIDTH 140 0
DWIDTH 4 0
BBX 2 6 1 16
BITMAP
C0
C0
C0
C0
C0
C0
ENDCHAR
STARTCHAR parenleft
ENCODING 40
SWIDTH 420 0
DWIDTH 13 0
BBX 8 26 3 -2
BITMAP
02
07
0E
1C
38
30
70
60
60
C0
C0
C0
C0
C0
C0
C0
C0
60
60
70
30
38
1C
0E
07
02
ENDCHAR
STARTCHAR parenright
ENCODING 41
SWIDTH 420 0
DWIDTH 13 0
BBX 8 26 3 -2
BITMAP
40
E0
70
38
1C
0C
0E
06
06
03
03
03
03
03
03
03
03
06
06
0E
0C
1C
38
70
E0
40
ENDCHAR
STARTCHAR asterisk
ENCODING 42
SWIDTH 503 0
DWIDTH 16 0
BBX 13 12 2 10
BITMAP
0700
0700
8710
E738
3FE0
0F80
0F80
3FE0
E738
8710
0700
0700
ENDCHAR
STARTCHAR plus
ENCODING 43
SWIDTH 634 0
DWIDTH 20 0
BBX 16 16 2 3
BITMAP
0180
0180
0180
0180
0180
0180
0180
FFFF
FFFF
0180
0180
0180
0180
0180
0180
0180
ENDCHAR
STARTCHAR comma
ENCODING 44
SWIDTH 185 0
DWIDTH 6 0
BBX 4 7 1 -4
BITMAP
70
70
60
60
E0
C0
C0
ENDCHAR
STARTCHAR hyphen
ENCODING 45
SWIDTH 540 0
DWIDTH 17 0
BBX 12 2 3 10
BITMAP
FFF0
FFF0
ENDCHAR
STARTCHAR period
ENCODING 46
SWIDTH 185 0
DWIDTH 6 0
BBX 3 3 2 0
BITMAP
E0
E0
E0
ENDCHAR
STARTCHAR slash
ENCODING 47
SWIDTH 500 0
DWIDTH 16 0
BBX 12 23 2 -1
BITMAP
0030
0060
0060
00C0
00C0
00C0
0180
0180
0300
0300
0600
0600
0600
0C00
0C00
1800
1800
3000
3000
3000
6000
6000
C000
ENDCHAR
STARTCHAR zero
ENCODING 48
SWIDTH 833 0
DWIDTH 27 0
BBX 23 22 2 0
BITMAP
00FE00
03FF80
0F01E0
1C0070
380038
70001C
60000C
60000C
C00006
C00006
C00006
C00006
C00006
C00006
60000C
60000C
70001C
380038
1C0070
0F01E0
07FFC0
00FE00
ENDCHAR
STARTCHAR one
ENCODING 49
SWIDTH 339 0
DWIDTH 11 0
BBX 7 22 0 0
BITMAP
3E
FE
E6
06
06
06
06
06
06
06
06
06
06
06
06
06
06
06
06
06
06
06
ENDCHAR
STARTCHAR two
ENCODING 50
SWIDTH 728 0
DWIDTH 23 0
BBX 20 22 1 0
BITMAP
0FFC00
7FFF00
F007C0
8000E0
000060
000030
000030
000030
000030
000060
0000C0
0001C0
000300
000E00
001C00
007000
01E000
038000
0E0000
380000
FFFFF0
FFFFF0
ENDCHAR
STARTCHAR three
ENCODING 51
SWIDTH 726 0
DWIDTH 23 0
BBX 20 22 1 0
BITMAP
0FFC00
7FFF00
F007C0
8000E0
000060
000060
000060
0000C0
000780
03FE00
03FE00
000780
0000E0
000070
000030
000030
000030
000070
8000E0
F007C0
7FFF80
0FFC00
ENDCHAR
STARTCHAR four
ENCODING 52
SWIDTH 769 0
DWIDTH 25 0
BBX 23 22 1 0
BITMAP
000780
000F80
001D80
003980
007180
00E180
01C180
038180
070180
0E0180
1C0180
380180
300180
600180
FFFFFE
FFFFFE
000180
000180
000180
000180
000180
000180
ENDCHAR
STARTCHAR five
ENCODING 53
SWIDTH 738 0
DWIDTH 24 0
BBX 20 22 2 0
BITMAP
7FFFC0
7FFFC0
600000
600000
600000
600000
600000
600000
600000
7FFC00
7FFF80
7003C0
0000E0
000070
000030
000030
000030
000070
8000E0
F007C0
7FFF80
0FFC00
ENDCHAR
STARTCHAR six
ENCODING 54
SWIDTH 772 0
DWIDTH 25 0
BBX 21 22 2 0
BITMAP
00FF80
07FFE0
0F0060
1C0000
300000
700000
600000
600000
C0FE00
C7FFC0
DE01E0
F80070
E00038
C00018
C00018
600018
600018
700030
380070
1E01E0
07FFC0
01FE00
ENDCHAR
STARTCHAR seven
ENCODING 55
SWIDTH 669 0
DWIDTH 21 0
BBX 20 22 0 0
BITMAP
FFFFF0
FFFFF0
000060
0000E0
0000C0
000180
000380
000300
000600
000600
000C00
001C00
001800
003000
007000
006000
00E000
00C000
018000
038000
030000
060000
ENDCHAR
STARTCHAR eight
ENCODING 56
SWIDTH 793 0
DWIDTH 25 0
BBX 22 22 2 0
BITMAP
01FE00
0FFFC0
1E01E0
380070
300030
300030
380070
1C00E0
0F87C0
03FE00
03FF00
0F07E0
380070
700038
C0001C
C0000C
C0000C
E0001C
700038
3C00F0
1FFFE0
03FF00
ENDCHAR
STARTCHAR nine
ENCODING 57
SWIDTH 776 0
DWIDTH 25 0
BBX 21 22 2 0
BITMAP
03FC00
1FFF00
3C03C0
7000E0
600060
C00030
C00030
C00018
C00018
E00038
7000F8
3C03D8
1FFF18
03F818
000030
000030
000070
000060
0001C0
300780
3FFF00
0FF800
ENDCHAR
STARTCHAR colon
ENCODING 58
SWIDTH 245 0
DWIDTH 8 0
BBX 3 15 3 0
BITMAP
E0
E0
E0
00
00
00
00
00
00
00
00
00
E0
E0
E0
ENDCHAR
STARTCHAR semicolon
ENCODING 59
SWIDTH 234 0
DWIDTH 8 0
BBX 4 19 1 -4
BITMAP
70
70
70
00
00
00
00
00
00
00
00
00
70
70
60
60
E0
C0
C0
ENDCHAR
STARTCHAR less
ENCODING 60
SWIDTH 634 0
DWIDTH 20 0
BBX 15 15 2 3
BITMAP
0002
000E
003C
01F0
0780
1E00
7800
C000
7800
1E00
0780
01F0
003C
000E
0002
ENDCHAR
STARTCHAR equal
ENCODING 61
SWIDTH 634 0
DWIDTH 20 0
BBX 15 8 3 7
BITMAP
FFFE
FFFE
0000
0000
0000
0000
FFFE
FFFE
ENDCHAR
STARTCHAR greater
ENCODING 62
SWIDTH 634 0
DWIDTH 20 0
BBX 15 15 3 3
BITMAP
8000
E000
7800
1F00
03C0
00F0
003C
0006
003C
00F0
03C0
1F00
7800
E000
8000
ENDCHAR
STARTCHAR question
ENCODING 63
SWIDTH 568 0
DWIDTH 18 0
BBX 14 22 2 0
BITMAP
1FC0
7FF0
E078
8018
000C
000C
000C
000C
0018
0038
00F0
07C0
1F00
1800
1800
1800
0000
0000
0000
1800
1800
1800
ENDCHAR
STARTCHAR at
ENCODING 64
SWIDTH 1016 0
DWIDTH 33 0
BBX 28 23 2 0
BITMAP
001FE000
00FFFC00
03E01F00
0F000380
1C0001C0
380000E0
301FB060
6070F030
60C03030
C0C06030
C1806030
C1806030
C1806020
C1806060
C180E0C0
E0C1E180
603E3E00
70000000
38000000
1E000000
0FC00C00
03FFFE00
007FF000
ENDCHAR
STARTCHAR A
ENCODING 65
SWIDTH 812 0
DWIDTH 26 0
BBX 25 22 1 0
BITMAP
001C0000
001C0000
00360000
00360000
00630000
00630000
00C18000
01C18000
0180C000
0380C000
03006000
06003000
06003000
0C001800
0FFFF800
1FFFFC00
18000C00
30000600
30000600
60000700
60000300
E0000380
ENDCHAR
STARTCHAR B
ENCODING 66
SWIDTH 836 0
DWIDTH 27 0
BBX 21 22 4 0
BITMAP
FFFF00
FFFF80
C001C0
C000E0
C00060
C00060
C00060
C000E0
C001C0
FFFF00
FFFFC0
C000E0
C00030
C00018
C00018
C00018
C00018
C00018
C00030
C000F0
FFFFE0
FFFF80
ENDCHAR
STARTCHAR C
ENCODING 67
SWIDTH 869 0
DWIDTH 28 0
BBX 24 22 2 0
BITMAP
007FE0
03FFFE
0FC01F
1E0001
380000
700000
600000
600000
C00000
C00000
C00000
C00000
C00000
C00000
600000
600000
700000
380000
1C0001
0F801F
03FFFE
007FE0
ENDCHAR
STARTCHAR D
ENCODING 68
SWIDTH 910 0
DWIDTH 29 0
BBX 23 22 4 0
BITMAP
FFFF00
FFFFC0
C001F0
C00038
C00018
C0000C
C0000C
C00006
C00006
C00006
C00006
C00006
C00006
C00006
C00006
C0000C
C0000C
C00018
C00038
C001F0
FFFFC0
FFFE00
ENDCHAR
STARTCHAR E
ENCODING 69
SWIDTH 754 0
DWIDTH 24 0
BBX 18 22 4 0
BITMAP
FFFFC0
FFFFC0
C00000
C00000
C00000
C00000
C00000
C00000
C00000
FFFF80
FFFF80
C00000
C00000
C00000
C00000
C00000
C00000
C00000
C00000
C00000
FFFFC0
FFFFC0
ENDCHAR
STARTCHAR F
ENCODING 70
SWIDTH 687 0
DWIDTH 22 0
BBX 17 22 4 0
BITMAP
FFFF80
FFFF80
C00000
C00000
C00000
C00000
C00000
C00000
C00000
FFFF00
FFFF00
C00000
C00000
C00000
C00000
C00000
C00000
C00000
C00000
C00000
C00000
C00000
ENDCHAR
STARTCHAR G
ENCODING 71
SWIDTH 910 0
DWIDTH 29 0
BBX 24 22 2 0
BITMAP
003FE0
03FFFE
0FC01F
1E0001
380000
700000
600000
600000
C00000
C00000
C00000
C007FF
C007FF
C00003
E00003
600003
700003
380003
1E0003
0F800F
03FFFF
007FF0
ENDCHAR
STARTCHAR H
ENCODING 72
SWIDTH 949 0
DWIDTH 30 0
BBX 23 22 4 0
BITMAP
C00006
C00006
C00006
C00006
C00006
C00006
C00006
C00006
C00006
FFFFFE
FFFFFE
C00006
C00006
C00006
C00006
C00006
C00006
C00006
C00006
C00006
C00006
C00006
ENDCHAR
STARTCHAR I
ENCODING 73
SWIDTH 287 0
DWIDTH 9 0
BBX 2 22 4 0
BITMAP
C0
C0
C0
C0
C0
C0
C0
C0
C0
C0
C0
C0
C0
C0
C0
C0
C0
C0
C0
C0
C0
C0
ENDCHAR
STARTCHAR J
ENCODING 74
SWIDTH 590 0
DWIDTH 19 0
BBX 15 22 0 0
BITMAP
0006
0006
0006
0006
0006
0006
0006
0006
0006
0006
0006
0006
0006
0006
0006
0006
0006
000E
001C
C038
FFF0
3FC0
ENDCHAR
STARTCHAR K
ENCODING 75
SWIDTH 806 0
DWIDTH 26 0
BBX 22 22 4 0
BITMAP
C00078
C000C0
C00380
C00600
C01C00
C07000
C0E000
C38000
C70000
DE0000
F80000
DC0000
CF0000
C38000
C1E000
C07000
C03C00
C00E00
C00780
C001C0
C000E0
C0003C
ENDCHAR
STARTCHAR L
ENCODING 76
SWIDTH 701 0
DWIDTH 22 0
BBX 18 22 3 0
BITMAP
C00000
C00000
C00000
C00000
C00000
C00000
C00000
C00000
C00000
C00000
C00000
C00000
C00000
C00000
C00000
C00000
C00000
C00000
C00000
C00000
FFFFC0
FFFFC0
ENDCHAR
STARTCHAR M
ENCODING 77
SWIDTH 1139 0
DWIDTH 36 0
BBX 29 22 4 0
BITMAP
C0000018
E0000038
F0000078
F0000078
D80000D8
DC0001D8
CC000198
C6000318
C6000318
C3000618
C1800C18
C1800C18
C0C01818
C0E01818
C0603018
C0306018
C0306018
C018C018
C01DC018
C00D8018
C0070018
C0070018
ENDCHAR
STARTCHAR N
ENCODING 78
SWIDTH 936 0
DWIDTH 30 0
BBX 23 22 3 0
BITMAP
E00006
F00006
F80006
DC0006
CE0006
C70006
C30006
C18006
C0C006
C06006
C03006
C01806
C00C06
C00606
C00306
C00186
C001C6
C000E6
C00076
C0003E
C0001E
C0000E
ENDCHAR
STARTCHAR O
ENCODING 79
SWIDTH 983 0
DWIDTH 31 0
BBX 27 22 2 0
BITMAP
007FC000
03FFF800
0F803E00
1C000700
38000380
700001C0
600000C0
E00000E0
C0000060
C0000060
C0000060
C0000060
C0000060
C0000060
E00000E0
600000C0
700001C0
38000380
1C000700
0F803E00
03FFF800
007FC000
ENDCHAR
STARTCHAR P
ENCODING 80
SWIDTH 818 0
DWIDTH 26 0
BBX 21 22 4 0
BITMAP
FFFF00
FFFFC0
C000F0
C00030
C00018
C00018
C00018
C00018
C00018
C00038
C00030
C000F0
FFFFC0
FFFF00
C00000
C00000
C00000
C00000
C00000
C00000
C00000
C00000
ENDCHAR
STARTCHAR Q
ENCODING 81
SWIDTH 983 0
DWIDTH 31 0
BBX 29 22 2 0
BITMAP
007FC000
03FFF800
0F803E00
1C000700
38000380
700001C0
600000C0
E00000E0
C0000060
C0000060
C0000060
C0000060
C0000060
C0000060
E00000E0
600000C0
700081C0
3801F380
1C007F00
0F803FC0
03FFF9F8
007FC030
ENDCHAR
STARTCHAR R
ENCODING 82
SWIDTH 833 0
DWIDTH 27 0
BBX 22 22 4 0
BITMAP
FFFE00
FFFFC0
C001E0
C00060
C00030
C00030
C00030
C00030
C00030
C00060
C001E0
FFFFC0
FFFF00
C00600
C00300
C00180
C001C0
C000C0
C00060
C00030
C00038
C0001C
ENDCHAR
STARTCHAR S
ENCODING 83
SWIDTH 787 0
DWIDTH 25 0
BBX 20 22 3 0
BITMAP
07FC00
3FFF80
7803C0
E00040
C00000
C00000
C00000
600000
380000
1F8000
03F800
003F00
0007C0
0000E0
000070
000030
000030
000030
800060
F003E0
7FFF80
07FE00
ENDCHAR
STARTCHAR T
ENCODING 84
SWIDTH 708 0
DWIDTH 23 0
BBX 22 22 0 0
BITMAP
FFFFFC
FFFFFC
003000
003000
003000
003000
003000
003000
003000
003000
003000
003000
003000
003000
003000
003000
003000
003000
003000
003000
003000
003000
ENDCHAR
STARTCHAR U
ENCODING 85
SWIDTH 891 0
DWIDTH 29 0
BBX 22 22 3 0
BITMAP
C0000C
C0000C
C0000C
C0000C
C0000C
C0000C
C0000C
C0000C
C0000C
C0000C
C0000C
C0000C
C0000C
C0000C
C0000C
C0000C
C0000C
600018
700038
3E01F0
0FFFC0
03FF00
ENDCHAR
STARTCHAR V
ENCODING 86
SWIDTH 817 0
DWIDTH 26 0
BBX 25 22 1 0
BITMAP
E0000380
60000300
70000700
30000600
38000E00
18000C00
1C001C00
0C001800
0E003800
06003000
07007000
03006000
0380E000
0180C000
01C1C000
00C18000
00C18000
00630000
00630000
00360000
00360000
001C0000
ENDCHAR
STARTCHAR W
ENCODING 87
SWIDTH 1266 0
DWIDTH 41 0
BBX 39 22 1 0
BITMAP
E00038000E
600038000C
70006C001C
30006C0018
3000EE0018
1800C60030
1800C60030
1801830030
0C01830060
0C01830060
06030180C0
06030180C0
060701C0C0
030600C180
030600C180
038C006380
018C006300
018C006300
00D8003600
00D8003600
00F8003E00
0070001C00
ENDCHAR
STARTCHAR X
ENCODING 88
SWIDTH 821 0
DWIDTH 26 0
BBX 23 22 1 0
BITMAP
70000E
38001C
1C0038
0E0070
0700E0
0300C0
018180
00C300
006600
003C00
001800
003C00
007E00
00E700
01C380
018180
0300C0
060060
0C0030
180018
30000C
E00006
ENDCHAR
STARTCHAR Y
ENCODING 89
SWIDTH 763 0
DWIDTH 24 0
BBX 22 22 1 0
BITMAP
E0001C
600018
300030
180060
1C00E0
0E01C0
060180
030300
018600
01CE00
00FC00
007800
003000
003000
003000
003000
003000
003000
003000
003000
003000
003000
ENDCHAR
STARTCHAR Z
ENCODING 90
SWIDTH 728 0
DWIDTH 23 0
BBX 19 22 2 0
BITMAP
FFFFE0
FFFFE0
0000C0
000180
000300
000600
000C00
001800
003800
007000
006000
00C000
018000
030000
060000
0E0000
1C0000
380000
300000
600000
FFFFE0
FFFFE0
ENDCHAR
STARTCHAR bracketleft
ENCODING 91
SWIDTH 409 0
DWIDTH 13 0
BBX 7 25 4 -2
BITMAP
FE
FE
C0
C0
C0
C0
C0
C0
C0
C0
C0
C0
C0
C0
C0
C0
C0
C0
C0
C0
C0
C0
C0
FE
FE
ENDCHAR
STARTCHAR backslash
ENCODING 92
SWIDTH 500 0
DWIDTH 16 0
BBX 12 23 2 -1
BITMAP
C000
6000
6000
3000
3000
3000
1800
1800
0C00
0C00
0600
0600
0600
0300
0300
0180
0180
00C0
00C0
00C0
0060
0060
0030
ENDCHAR
STARTCHAR bracketright
ENCODING 93
SWIDTH 409 0
DWIDTH 13 0
BBX 7 25 2 -2
BITMAP
FE
FE
06
06
06
06
06
06
06
06
06
06
06
06
06
06
06
06
06
06
06
06
06
FE
FE
ENDCHAR
STARTCHAR asciicircum
ENCODING 94
SWIDTH 459 0
DWIDTH 15 0
BBX 13 9 1 13
BITMAP
0700
0700
0D80
18C0
18C0
3060
3060
6030
C018
ENDCHAR
STARTCHAR underscore
ENCODING 95
SWIDTH 500 0
DWIDTH 16 0
BBX 16 2 0 -4
BITMAP
FFFF
FFFF
ENDCHAR
STARTCHAR grave
ENCODING 96
SWIDTH 527 0
DWIDTH 17 0
BBX 8 5 3 18
BITMAP
40
F0
3C
0F
03
ENDCHAR
STARTCHAR a
ENCODING 97
SWIDTH 888 0
DWIDTH 28 0
BBX 23 22 2 0
BITMAP
01FF80
1FFFE0
3E00F8
20001C
00000C
000006
000006
000006
0001FE
00FFFE
07FE06
1F0006
780006
600006
C00006
C00006
C00006
C0000E
60003E
7803F6
3FFFC6
07FC06
ENDCHAR
STARTCHAR b
ENCODING 98
SWIDTH 836 0
DWIDTH 27 0
BBX 21 22 4 0
BITMAP
FFFF00
FFFF80
C001C0
C000E0
C00060
C00060
C00060
C000E0
C001C0
FFFF00
FFFFC0
C000E0
C00030
C00018
C00018
C00018
C00018
C00018
C00030
C000F0
FFFFE0
FFFF80
ENDCHAR
STARTCHAR c
ENCODING 99
SWIDTH 869 0
DWIDTH 28 0
BBX 24 22 2 0
BITMAP
007FE0
03FFFE
0FC01F
1E0001
380000
700000
600000
600000
C00000
C00000
C00000
C00000
C00000
C00000
600000
600000
700000
380000
1C0001
0F801F
03FFFE
007FE0
ENDCHAR
STARTCHAR d
ENCODING 100
SWIDTH 910 0
DWIDTH 29 0
BBX 23 22 4 0
BITMAP
FFFF00
FFFFC0
C001F0
C00038
C00018
C0000C
C0000C
C00006
C00006
C00006
C00006
C00006
C00006
C00006
C00006
C0000C
C0000C
C00018
C00038
C001F0
FFFFC0
FFFE00
ENDCHAR
STARTCHAR e
ENCODING 101
SWIDTH 910 0
DWIDTH 29 0
BBX 25 22 2 0
BITMAP
007F8000
03FFF000
0F807800
1C001C00
38000E00
70000700
60000300
60000300
C0000180
C0000180
FFFFFF80
FFFFFF80
C0000000
C0000000
60000000
60000000
70000000
38000000
1C000200
0F801E00
03FFFC00
007FE000
ENDCHAR
STARTCHAR f
ENCODING 102
SWIDTH 817 0
DWIDTH 26 0
BBX 21 22 3 0
BITMAP
03FFF8
1FFFF8
3C0000
700000
E00000
C00000
C00000
C00000
C00000
C00000
FFFFF8
FFFFF8
C00000
C00000
C00000
C00000
C00000
C00000
C00000
C00000
C00000
C00000
ENDCHAR
STARTCHAR g
ENCODING 103
SWIDTH 910 0
DWIDTH 29 0
BBX 24 22 2 0
BITMAP
003FE0
03FFFE
0FC01F
1E0001
380000
700000
600000
600000
C00000
C00000
C00000
C007FF
C007FF
C00003
E00003
600003
700003
380003
1E0003
0F800F
03FFFF
007FF0
ENDCHAR
STARTCHAR h
ENCODING 104
SWIDTH 949 0
DWIDTH 30 0
BBX 23 22 4 0
BITMAP
C00006
C00006
C00006
C00006
C00006
C00006
C00006
C00006
C00006
FFFFFE
FFFFFE
C00006
C00006
C00006
C00006
C00006
C00006
C00006
C00006
C00006
C00006
C00006
ENDCHAR
STARTCHAR i
ENCODING 105
SWIDTH 287 0
DWIDTH 9 0
BBX 2 22 4 0
BITMAP
C0
C0
C0
C0
C0
C0
C0
C0
C0
C0
C0
C0
C0
C0
C0
C0
C0
C0
C0
C0
C0
C0
ENDCHAR
STARTCHAR j
ENCODING 106
SWIDTH 590 0
DWIDTH 19 0
BBX 15 22 0 0
BITMAP
0006
0006
0006
0006
0006
0006
0006
0006
0006
0006
0006
0006
0006
0006
0006
0006
0006
000E
001C
C038
FFF0
3FC0
ENDCHAR
STARTCHAR k
ENCODING 107
SWIDTH 867 0
DWIDTH 28 0
BBX 22 22 4 0
BITMAP
C00018
C00018
C00030
C00030
C00070
C000E0
C001C0
C00380
C00F00
C07C00
FFE000
FFF800
C03F00
C00780
C001C0
C00060
C00030
C00038
C00018
C0001C
C0000C
C0000C
ENDCHAR
STARTCHAR l
ENCODING 108
SWIDTH 709 0
DWIDTH 23 0
BBX 19 22 4 0
BITMAP
C00000
C00000
C00000
C00000
C00000
C00000
C00000
C00000
C00000
C00000
C00000
C00000
C00000
C00000
C00000
C00000
C00000
C00000
600000
780000
3FFFE0
0FFFE0
ENDCHAR
STARTCHAR m
ENCODING 109
SWIDTH 1246 0
DWIDTH 40 0
BBX 33 22 4 0
BITMAP
C1F803F800
C7FC0FFC00
CE0E3C0E00
F803700300
F003E00380
E001800180
C001800180
C001800180
C001800180
C001800180
C001800180
C001800180
C001800180
C001800180
C001800180
C001800180
C001800180
C001800180
C001800180
C001800180
C001800180
C001800180
ENDCHAR
STARTCHAR n
ENCODING 110
SWIDTH 933 0
DWIDTH 30 0
BBX 23 22 3 0
BITMAP
C03FC0
C1FFF0
C7C038
DE001C
F8000E
F00006
C00006
C00006
C00006
C00006
C00006
C00006
C00006
C00006
C00006
C00006
C00006
C00006
C00006
C00006
C00006
C00006
ENDCHAR
STARTCHAR o
ENCODING 111
SWIDTH 983 0
DWIDTH 31 0
BBX 27 22 2 0
BITMAP
007FC000
03FFF800
0F803E00
1C000700
38000380
700001C0
600000C0
E00000E0
C0000060
C0000060
C0000060
C0000060
C0000060
C0000060
E00000E0
600000C0
700001C0
38000380
1C000700
0F803E00
03FFF800
007FC000
ENDCHAR
STARTCHAR p
ENCODING 112
SWIDTH 818 0
DWIDTH 26 0
BBX 21 22 4 0
BITMAP
FFFF00
FFFFC0
C000F0
C00030
C00018
C00018
C00018
C00018
C00018
C00038
C00030
C000F0
FFFFC0
FFFF00
C00000
C00000
C00000
C00000
C00000
C00000
C00000
C00000
ENDCHAR
STARTCHAR q
ENCODING 113
SWIDTH 983 0
DWIDTH 31 0
BBX 29 22 2 0
BITMAP
007FC000
03FFF800
0F803E00
1C000700
38000380
700001C0
600000C0
E00000E0
C0000060
C0000060
C0000060
C0000060
C0000060
C0000060
E00000E0
600000C0
700001C0
38000380
1C000700
0F803FC0
03FFFFF8
007FC030
ENDCHAR
STARTCHAR r
ENCODING 114
SWIDTH 609 0
DWIDTH 20 0
BBX 16 22 4 0
BITMAP
C07F
C1FF
C780
CE00
F800
F000
E000
C000
C000
C000
C000
C000
C000
C000
C000
C000
C000
C000
C000
C000
C000
C000
ENDCHAR
STARTCHAR s
ENCODING 115
SWIDTH 787 0
DWIDTH 25 0
BBX 20 22 3 0
BITMAP
07FC00
3FFF80
7803C0
E00040
C00000
C00000
C00000
600000
380000
1F8000
03F800
003F00
0007C0
0000E0
000070
000030
000030
000030
800060
F003E0
7FFF80
07FE00
ENDCHAR
STARTCHAR t
ENCODING 116
SWIDTH 708 0
DWIDTH 23 0
BBX 22 22 0 0
BITMAP
FFFFFC
FFFFFC
003000
003000
003000
003000
003000
003000
003000
003000
003000
003000
003000
003000
003000
003000
003000
003000
003000
003000
003000
003000
ENDCHAR
STARTCHAR u
ENCODING 117
SWIDTH 931 0
DWIDTH 30 0
BBX 23 22 3 0
BITMAP
C00006
C00006
C00006
C00006
C00006
C00006
C00006
C00006
C00006
C00006
C00006
C00006
C00006
C00006
C00006
C00006
C0001E
E0003E
6000F6
3807C6
1FFF06
07F806
ENDCHAR
STARTCHAR v
ENCODING 118
SWIDTH 817 0
DWIDTH 26 0
BBX 25 22 1 0
BITMAP
E0000380
60000300
70000700
30000600
38000E00
18000C00
1C001C00
0C001800
0E003800
06003000
07007000
03006000
0380E000
0180C000
01C1C000
00C18000
00C18000
00630000
00630000
00360000
00360000
001C0000
ENDCHAR
STARTCHAR w
ENCODING 119
SWIDTH 1266 0
DWIDTH 41 0
BBX 39 22 1 0
BITMAP
E00038000E
600038000C
70006C001C
30006C0018
3000EE0018
1800C60030
1800C60030
1801830030
0C01830060
0C01830060
06030180C0
06030180C0
060701C0C0
030600C180
030600C180
038C006380
018C006300
018C006300
00D8003600
00D8003600
00F8003E00
0070001C00
ENDCHAR
STARTCHAR x
ENCODING 120
SWIDTH 821 0
DWIDTH 26 0
BBX 23 22 1 0
BITMAP
70000E
38001C
1C0038
0E0070
0700E0
0300C0
018180
00C300
006600
003C00
001800
003C00
007E00
00E700
01C380
018180
0300C0
060060
0C0030
180018
30000C
E00006
ENDCHAR
STARTCHAR y
ENCODING 121
SWIDTH 911 0
DWIDTH 29 0
BBX 23 22 3 0
BITMAP
C00006
C00006
C00006
C00006
C00006
C00006
C00006
C00006
E0000E
60001E
700036
3800E6
1E03C6
0FFF86
03FC06
000006
00000C
00001C
800078
F801F0
7FFFC0
07FE00
ENDCHAR
STARTCHAR z
ENCODING 122
SWIDTH 728 0
DWIDTH 23 0
BBX 19 22 2 0
BITMAP
FFFFE0
FFFFE0
0000C0
000180
000300
000600
000C00
001800
003800
007000
006000
00C000
018000
030000
060000
0E0000
1C0000
380000
300000
600000
FFFFE0
FFFFE0
ENDCHAR
STARTCHAR braceleft
ENCODING 123
SWIDTH 386 0
DWIDTH 12 0
BBX 10 25 1 -2
BITMAP
03C0
07C0
0E00
0C00
0C00
0C00
0C00
0C00
0C00
0C00
0C00
1800
E000
1800
0800
0C00
0C00
0C00
0C00
0C00
0C00
0C00
0E00
07C0
03C0
ENDCHAR
STARTCHAR bar
ENCODING 124
SWIDTH 259 0
DWIDTH 8 0
BBX 2 32 3 -8
BITMAP
C0
C0
C0
C0
C0
C0
C0
C0
C0
C0
C0
C0
C0
C0
C0
C0
C0
C0
C0
C0
C0
C0
C0
C0
C0
C0
C0
C0
C0
C0
C0
C0
ENDCHAR
STARTCHAR braceright
ENCODING 125
SWIDTH 386 0
DWIDTH 12 0
BBX 10 25 2 -2
BITMAP
F000
F800
1C00
0C00
0C00
0C00
0C00
0C00
0C00
0C00
0C00
0600
01C0
0600
0C00
0C00
0C00
0C00
0C00
0C00
0C00
0C00
1C00
F800
F000
ENDCHAR
STARTCHAR asciitilde
ENCODING 126
SWIDTH 634 0
DWIDTH 20 0
BBX 15 3 2 9
BITMAP
7F02
FFFE
81FC
ENDCHAR
STARTCHAR nonbreakingspace
ENCODING 160
SWIDTH 375 0
DWIDTH 12 0
BBX 1 1 0 0
BITMAP
00
ENDCHAR
STARTCHAR exclamdown
ENCODING 161
SWIDTH 274 0
DWIDTH 9 0
BBX 2 22 3 0
BITMAP
C0
C0
C0
00
00
00
C0
C0
C0
C0
C0
C0
C0
C0
C0
C0
C0
C0
C0
C0
C0
C0
ENDCHAR
STARTCHAR cent
ENCODING 162
SWIDTH 736 0
DWIDTH 24 0
BBX 20 25 2 -2
BITMAP
003000
003000
003000
01FF00
07FFE0
1F30F0
383010
703000
603000
E03000
C03000
C03000
C03000
C03000
C03000
E03000
603000
703000
383010
1E30F0
07FFE0
01FF00
003000
003000
003000
ENDCHAR
STARTCHAR sterling
ENCODING 163
SWIDTH 792 0
DWIDTH 25 0
BBX 22 22 1 0
BITMAP
003FE0
00FFF8
01E018
038000
030000
060000
060000
060000
060000
060000
FFFF80
FFFF80
060000
060000
060000
060000
060000
0E0000
0C0000
3FF004
FFFFFC
E01FF8
ENDCHAR
STARTCHAR currency
ENCODING 164
SWIDTH 560 0
DWIDTH 18 0
BBX 14 14 2 4
BITMAP
C00C
E79C
7FF8
3870
3030
6018
6018
6018
6018
3030
3870
7FF8
E79C
C00C
ENDCHAR
STARTCHAR yen
ENCODING 165
SWIDTH 811 0
DWIDTH 26 0
BBX 22 22 2 0
BITMAP
E0001C
700038
300030
180060
0C00C0
0E01C0
070380
030300
018600
7FCFF8
7FFFF8
007800
003000
7FFFF8
7FFFF8
003000
003000
003000
003000
003000
003000
003000
ENDCHAR
STARTCHAR brokenbar
ENCODING 166
SWIDTH 259 0
DWIDTH 8 0
BBX 2 28 3 -6
BITMAP
C0
C0
C0
C0
C0
C0
C0
C0
C0
C0
C0
C0
00
00
00
00
C0
C0
C0
C0
C0
C0
C0
C0
C0
C0
C0
C0
ENDCHAR
STARTCHAR section
ENCODING 167
SWIDTH 500 0
DWIDTH 16 0
BBX 12 22 2 0
BITMAP
0FC0
3FE0
7020
6000
6000
7000
3800
3E00
6380
C0E0
C070
E030
7030
3C60
07C0
01C0
00E0
0060
0060
40E0
7FC0
3F80
ENDCHAR
STARTCHAR dieresis
ENCODING 168
SWIDTH 527 0
DWIDTH 17 0
BBX 8 2 4 18
BITMAP
C3
C3
ENDCHAR
STARTCHAR copyright
ENCODING 169
SWIDTH 770 0
DWIDTH 25 0
BBX 21 21 2 0
BITMAP
01FC00
060700
080080
100040
20FC20
438610
460210
860018
8C0008
8C0008
8C0008
8C0008
8C0008
860008
460210
438610
20FC20
100040
080080
060300
01FC00
ENDCHAR
STARTCHAR ordfeminine
ENCODING 170
SWIDTH 497 0
DWIDTH 16 0
BBX 13 14 1 8
BITMAP
1FC0
7070
4018
0018
07F8
3C18
E018
C018
C018
E0F8
3F98
0000
0000
FFF8
ENDCHAR
STARTCHAR guillemotleft
ENCODING 171
SWIDTH 440 0
DWIDTH 14 0
BBX 12 11 1 5
BITMAP
0820
1C70
38E0
71C0
E380
C300
E380
71C0
38E0
1C70
0820
ENDCHAR
STARTCHAR logicalnot
ENCODING 172
SWIDTH 634 0
DWIDTH 20 0
BBX 15 7 3 7
BITMAP
FFFE
FFFE
0006
0006
0006
0006
0006
ENDCHAR
STARTCHAR uni00AD
ENCODING 173
SWIDTH 540 0
DWIDTH 17 0
BBX 12 2 3 10
BITMAP
FFF0
FFF0
ENDCHAR
STARTCHAR registered
ENCODING 174
SWIDTH 600 0
DWIDTH 19 0
BBX 16 16 2 6
BITMAP
07E0
1818
300C
67E6
4632
8631
8631
87E1
8621
8621
8611
4612
600E
300C
1818
07E0
ENDCHAR
STARTCHAR macron
ENCODING 175
SWIDTH 527 0
DWIDTH 17 0
BBX 9 2 4 18
BITMAP
FF80
FF80
ENDCHAR
STARTCHAR degree
ENCODING 176
SWIDTH 373 0
DWIDTH 12 0
BBX 8 8 2 14
BITMAP
3C
66
C3
C3
C3
C3
66
3C
ENDCHAR
STARTCHAR plusminus
ENCODING 177
SWIDTH 634 0
DWIDTH 20 0
BBX 16 18 2 1
BITMAP
0180
0180
0180
0180
0180
0180
FFFF
FFFF
0180
0180
0180
0180
0180
0180
0000
0000
FFFF
FFFF
ENDCHAR
STARTCHAR twosuperior
ENCODING 178
SWIDTH 511 0
DWIDTH 16 0
BBX 13 14 1 8
BITMAP
3F80
E070
8030
0018
0018
0018
0030
0060
01C0
0380
0E00
1C00
7000
FFF8
ENDCHAR
STARTCHAR threesuperior
ENCODING 179
SWIDTH 512 0
DWIDTH 16 0
BBX 13 14 1 8
BITMAP
3FC0
C070
8018
0018
0038
00F0
0F80
0070
0038
0018
0018
8038
C070
3FC0
ENDCHAR
STARTCHAR acute
ENCODING 180
SWIDTH 527 0
DWIDTH 17 0
BBX 7 5 7 18
BITMAP
04
0E
3C
F0
C0
ENDCHAR
STARTCHAR micro
ENCODING 181
SWIDTH 705 0
DWIDTH 23 0
BBX 18 21 1 -6
BITMAP
0C00C0
0C00C0
1801C0
180180
180180
180180
180180
100380
300300
300300
300700
380F00
3C3B00
6FF300
63C180
600000
600000
600000
C00000
C00000
C00000
ENDCHAR
STARTCHAR paragraph
ENCODING 182
SWIDTH 585 0
DWIDTH 19 0
BBX 13 22 2 0
BITMAP
0FF8
3F88
7F88
FF88
FF88
FF88
FF88
FF88
7F88
7F88
3F88
0788
0088
0088
0088
0088
0088
0088
0088
0088
0088
0088
ENDCHAR
STARTCHAR periodcentered
ENCODING 183
SWIDTH 185 0
DWIDTH 6 0
BBX 3 3 2 9
BITMAP
E0
E0
E0
ENDCHAR
STARTCHAR cedilla
ENCODING 184
SWIDTH 527 0
DWIDTH 17 0
BBX 7 6 5 -6
BITMAP
10
20
3C
06
86
FC
ENDCHAR
STARTCHAR onesuperior
ENCODING 185
SWIDTH 261 0
DWIDTH 8 0
BBX 5 14 0 8
BITMAP
38
58
98
18
18
18
18
18
18
18
18
18
18
18
ENDCHAR
STARTCHAR ordmasculine
ENCODING 186
SWIDTH 520 0
DWIDTH 17 0
BBX 15 14 1 8
BITMAP
0FE0
3838
600C
C006
C006
C006
C006
C006
600C
3838
0FE0
0000
0000
7FFC
ENDCHAR
STARTCHAR guillemotright
ENCODING 187
SWIDTH 440 0
DWIDTH 14 0
BBX 12 11 1 5
BITMAP
4100
E380
71C0
38E0
1C70
0C30
1C70
38E0
71C0
E380
4100
ENDCHAR
STARTCHAR onequarter
ENCODING 188
SWIDTH 857 0
DWIDTH 27 0
BBX 25 22 1 0
BITMAP
38001800
58003000
98006000
1800C000
1800C000
18018000
18030000
18060000
180C0000
180C0000
18180000
00301C00
00603C00
00606C00
00C0CC00
01818C00
03030C00
06060C00
060FFF80
0C000C00
18000C00
30000C00
ENDCHAR
STARTCHAR onehalf
ENCODING 189
SWIDTH 937 0
DWIDTH 30 0
BBX 26 22 1 0
BITMAP
38001800
58003000
98006000
1800C000
1800C000
18018000
18030000
18060000
180C0000
180C0000
18187E00
0031C180
006100C0
006000C0
00C000C0
01800180
03000380
06000600
06001C00
0C003800
1800E000
3001FFC0
ENDCHAR
STARTCHAR threequarters
ENCODING 190
SWIDTH 978 0
DWIDTH 31 0
BBX 28 22 2 0
BITMAP
FF800300
80C00600
00600C00
00601800
00C01800
0F003000
01C06000
0060C000
00618000
80618000
C0C30000
7F060380
000C0780
000C0D80
00181980
00303180
00606180
00C0C180
00C1FFF0
01800180
03000180
06000180
ENDCHAR
STARTCHAR questiondown
ENCODING 191
SWIDTH 568 0
DWIDTH 18 0
BBX 14 22 2 0
BITMAP
0060
0060
0060
0000
0000
0000
0060
0060
0060
03E0
0F80
3C00
7000
6000
C000
C000
C000
C000
6004
781C
3FF8
0FE0
ENDCHAR
STARTCHAR Agrave
ENCODING 192
SWIDTH 812 0
DWIDTH 26 0
BBX 25 29 1 0
BITMAP
01000000
01C00000
00F00000
003C0000
00060000
00000000
00000000
001C0000
001C0000
00360000
00360000
00630000
00630000
00C18000
01C18000
0180C000
0380C000
03006000
06003000
06003000
0C001800
0FFFF800
1FFFFC00
18000C00
30000600
30000600
60000700
60000300
E0000380
ENDCHAR
STARTCHAR Aacute
ENCODING 193
SWIDTH 812 0
DWIDTH 26 0
BBX 25 29 1 0
BITMAP
00008000
00038000
00074000
001C0000
00100000
00000000
00000000
001C0000
001C0000
00360000
00360000
00630000
00630000
00C18000
01C18000
0180C000
0380C000
03006000
06003000
06003000
0C001800
0FFFF800
1FFFFC00
18000C00
30000600
30000600
60000700
60000300
E0000380
ENDCHAR
STARTCHAR Acircumflex
ENCODING 194
SWIDTH 812 0
DWIDTH 26 0
BBX 25 29 1 0
BITMAP
00100000
007C0000
00EE0000
03838000
0200C000
00000000
00000000
001C0000
001C0000
00360000
00360000
00630000
00630000
00C18000
01C18000
0180C000
0380C000
03006000
06003000
06003000
0C001800
0FFFF800
1FFFFC00
18000C00
30000600
30000600
60000700
60000300
E0000380
ENDCHAR
STARTCHAR Atilde
ENCODING 195
SWIDTH 812 0
DWIDTH 26 0
BBX 25 27 1 0
BITMAP
00F8C000
01FF8000
018F0000
00000000
00000000
001C0000
001C0000
00360000
00360000
00630000
00630000
00C18000
01C18000
0180C000
0380C000
03006000
06003000
06003000
0C001800
0FFFF800
1FFFFC00
18000C00
30000600
30000600
60000700
60000300
E0000380
ENDCHAR
STARTCHAR Adieresis
ENCODING 196
SWIDTH 812 0
DWIDTH 26 0
BBX 25 26 1 0
BITMAP
00C30000
00C30000
00000000
00000000
001C0000
001C0000
00360000
00360000
00630000
00630000
00C18000
01C18000
0180C000
0380C000
03006000
06003000
06003000
0C001800
0FFFF800
1FFFFC00
18000C00
30000600
30000600
60000700
60000300
E0000380
ENDCHAR
STARTCHAR Aring
ENCODING 197
SWIDTH 812 0
DWIDTH 26 0
BBX 25 29 1 0
BITMAP
003C0000
00E70000
00C30000
00C30000
00E70000
003C0000
00000000
001C0000
001C0000
00360000
00360000
00630000
00630000
00C18000
01C18000
0180C000
0380C000
03006000
06003000
06003000
0C001800
0FFFF800
1FFFFC00
18000C00
30000600
30000600
60000700
60000300
E0000380
ENDCHAR
STARTCHAR AE
ENCODING 198
SWIDTH 1172 0
DWIDTH 38 0
BBX 35 22 0 0
BITMAP
0003FFFFE0
0003FFFFE0
0006600000
000E600000
000C600000
0018600000
0038600000
0030600000
0060600000
00C07FFFC0
00C07FFFC0
0180600000
0300600000
0300600000
07FFE00000
0FFFE00000
0C00600000
1800600000
3800600000
3000600000
70007FFFE0
E0007FFFE0
ENDCHAR
STARTCHAR Ccedilla
ENCODING 199
SWIDTH 869 0
DWIDTH 28 0
BBX 24 28 2 -6
BITMAP
007FE0
03FFFE
0FC01F
1E0001
380000
700000
600000
600000
C00000
C00000
C00000
C00000
C00000
C00000
600000
600000
300000
380000
1C0001
07801F
01FFFE
003FE0
000400
000F00
000180
000180
002180
003F00
ENDCHAR
STARTCHAR Egrave
ENCODING 200
SWIDTH 754 0
DWIDTH 24 0
BBX 18 29 4 0
BITMAP
080000
1E0000
078000
01E000
006000
000000
000000
FFFFC0
FFFFC0
C00000
C00000
C00000
C00000
C00000
C00000
C00000
FFFF80
FFFF80
C00000
C00000
C00000
C00000
C00000
C00000
C00000
C00000
C00000
FFFFC0
FFFFC0
ENDCHAR
STARTCHAR Eacute
ENCODING 201
SWIDTH 754 0
DWIDTH 24 0
BBX 18 29 4 0
BITMAP
000800
001C00
007800
01E000
018000
000000
000000
FFFFC0
FFFFC0
C00000
C00000
C00000
C00000
C00000
C00000
C00000
FFFF80
FFFF80
C00000
C00000
C00000
C00000
C00000
C00000
C00000
C00000
C00000
FFFFC0
FFFFC0
ENDCHAR
STARTCHAR Ecircumflex
ENCODING 202
SWIDTH 754 0
DWIDTH 24 0
BBX 18 29 4 0
BITMAP
018000
03C000
0E7000
181800
200C00
000000
000000
FFFFC0
FFFFC0
C00000
C00000
C00000
C00000
C00000
C00000
C00000
FFFF80
FFFF80
C00000
C00000
C00000
C00000
C00000
C00000
C00000
C00000
C00000
FFFFC0
FFFFC0
ENDCHAR
STARTCHAR Edieresis
ENCODING 203
SWIDTH 754 0
DWIDTH 24 0
BBX 18 26 4 0
BITMAP
0C3000
0C3000
000000
000000
FFFFC0
FFFFC0
C00000
C00000
C00000
C00000
C00000
C00000
C00000
FFFF80
FFFF80
C00000
C00000
C00000
C00000
C00000
C00000
C00000
C00000
C00000
FFFFC0
FFFFC0
ENDCHAR
STARTCHAR Igrave
ENCODING 204
SWIDTH 287 0
DWIDTH 9 0
BBX 8 29 -1 0
BITMAP
40
F0
3C
0F
03
00
00
06
06
06
06
06
06
06
06
06
06
06
06
06
06
06
06
06
06
06
06
06
06
ENDCHAR
STARTCHAR Iacute
ENCODING 205
SWIDTH 287 0
DWIDTH 9 0
BBX 7 29 3 0
BITMAP
02
0E
3C
F0
C0
00
00
60
60
60
60
60
60
60
60
60
60
60
60
60
60
60
60
60
60
60
60
60
60
ENDCHAR
STARTCHAR Icircumflex
ENCODING 206
SWIDTH 287 0
DWIDTH 9 0
BBX 12 29 -2 0
BITMAP
0600
0F00
39C0
7070
C010
0000
0000
0300
0300
0300
0300
0300
0300
0300
0300
0300
0300
0300
0300
0300
0300
0300
0300
0300
0300
0300
0300
0300
0300
ENDCHAR
STARTCHAR Idieresis
ENCODING 207
SWIDTH 287 0
DWIDTH 9 0
BBX 8 26 0 0
BITMAP
C3
C3
00
00
0C
0C
0C
0C
0C
0C
0C
0C
0C
0C
0C
0C
0C
0C
0C
0C
0C
0C
0C
0C
0C
0C
ENDCHAR
STARTCHAR Eth
ENCODING 208
SWIDTH 910 0
DWIDTH 29 0
BBX 26 22 1 0
BITMAP
1FFFC000
1FFFF800
18007E00
18000F00
18000300
18000180
18000180
180000C0
180000C0
180000C0
FFFC00C0
FFFC00C0
180000C0
180000C0
180000C0
18000180
18000180
18000300
18000700
18003E00
1FFFF800
1FFFC000
ENDCHAR
STARTCHAR Ntilde
ENCODING 209
SWIDTH 936 0
DWIDTH 30 0
BBX 23 27 3 0
BITMAP
00F0C0
01FF80
018F00
000000
000000
E00006
F00006
F80006
DC0006
CE0006
C70006
C30006
C18006
C0C006
C06006
C03006
C01806
C00C06
C00606
C00306
C00186
C001C6
C000E6
C00076
C0003E
C0001E
C0000E
ENDCHAR
STARTCHAR Ograve
ENCODING 210
SWIDTH 983 0
DWIDTH 31 0
BBX 27 29 2 0
BITMAP
00400000
00F00000
003C0000
000F0000
00030000
00000000
00000000
007FC000
03FFF800
0F803E00
1C000700
38000380
700001C0
600000C0
E00000E0
C0000060
C0000060
C0000060
C0000060
C0000060
C0000060
E00000E0
600000C0
700001C0
38000380
1C000700
0F803E00
03FFF800
007FC000
ENDCHAR
STARTCHAR Oacute
ENCODING 211
SWIDTH 983 0
DWIDTH 31 0
BBX 27 29 2 0
BITMAP
00002000
0000E000
0003C000
00070000
000C0000
00000000
00000000
007FC000
03FFF800
0F803E00
1C000700
38000380
700001C0
600000C0
E00000E0
C0000060
C0000060
C0000060
C0000060
C0000060
C0000060
E00000E0
600000C0
700001C0
38000380
1C000700
0F803E00
03FFF800
007FC000
ENDCHAR
STARTCHAR Ocircumflex
ENCODING 212
SWIDTH 983 0
DWIDTH 31 0
BBX 27 29 2 0
BITMAP
00040000
001F0000
007B8000
00E0E000
01802000
00000000
00000000
007FC000
03FFF800
0F803E00
1C000700
38000380
700001C0
600000C0
E00000E0
C0000060
C0000060
C0000060
C0000060
C0000060
C0000060
E00000E0
600000C0
700001C0
38000380
1C000700
0F803E00
03FFF800
007FC000
ENDCHAR
STARTCHAR Otilde
ENCODING 213
SWIDTH 983 0
DWIDTH 31 0
BBX 27 27 2 0
BITMAP
003C2000
007FE000
00E3C000
00000000
00000000
007FC000
03FFF800
0F803E00
1C000700
38000380
700001C0
600000C0
E00000E0
C0000060
C0000060
C0000060
C0000060
C0000060
C0000060
E00000E0
600000C0
700001C0
38000380
1C000700
0F803E00
03FFF800
007FC000
ENDCHAR
STARTCHAR Odieresis
ENCODING 214
SWIDTH 983 0
DWIDTH 31 0
BBX 27 26 2 0
BITMAP
00618000
00618000
00000000
00000000
007FC000
03FFF800
0F803E00
1C000700
38000380
700001C0
600000C0
E00000E0
C0000060
C0000060
C0000060
C0000060
C0000060
C0000060
E00000E0
600000C0
700001C0
38000380
1C000700
0F803E00
03FFF800
007FC000
ENDCHAR
STARTCHAR multiply
ENCODING 215
SWIDTH 634 0
DWIDTH 20 0
BBX 13 13 4 4
BITMAP
4010
E038
7070
38E0
1DC0
0F80
0700
0F80
1DC0
38E0
7070
E038
4010
ENDCHAR
STARTCHAR Oslash
ENCODING 216
SWIDTH 983 0
DWIDTH 31 0
BBX 27 26 2 -2
BITMAP
00000300
00000600
007FCC00
03FFF800
0F803E00
1C003700
38006380
700061C0
6000C0C0
E00180C0
C0030060
C0030060
C0060060
C00C0060
C0180060
C0180060
E03000E0
606000C0
70C001C0
38C00380
1D800700
0F803E00
03FFF800
067FC000
0C000000
18000000
ENDCHAR
STARTCHAR Ugrave
ENCODING 217
SWIDTH 891 0
DWIDTH 29 0
BBX 22 29 3 0
BITMAP
030000
03C000
01F000
003C00
000800
000000
000000
C0000C
C0000C
C0000C
C0000C
C0000C
C0000C
C0000C
C0000C
C0000C
C0000C
C0000C
C0000C
C0000C
C0000C
C0000C
C0000C
C0000C
600018
700038
3E01F0
0FFFC0
03FF00
ENDCHAR
STARTCHAR Uacute
ENCODING 218
SWIDTH 891 0
DWIDTH 29 0
BBX 22 29 3 0
BITMAP
000100
000780
000E00
003800
002000
000000
000000
C0000C
C0000C
C0000C
C0000C
C0000C
C0000C
C0000C
C0000C
C0000C
C0000C
C0000C
C0000C
C0000C
C0000C
C0000C
C0000C
C0000C
600018
700038
3E01F0
0FFFC0
03FF00
ENDCHAR
STARTCHAR Ucircumflex
ENCODING 219
SWIDTH 891 0
DWIDTH 29 0
BBX 22 29 3 0
BITMAP
003000
007800
01CE00
070700
040180
000000
000000
C0000C
C0000C
C0000C
C0000C
C0000C
C0000C
C0000C
C0000C
C0000C
C0000C
C0000C
C0000C
C0000C
C0000C
C0000C
C0000C
C0000C
600018
700038
3E01F0
0FFFC0
03FF00
ENDCHAR
STARTCHAR Udieresis
ENCODING 220
SWIDTH 891 0
DWIDTH 29 0
BBX 22 26 3 0
BITMAP
018600
018600
000000
000000
C0000C
C0000C
C0000C
C0000C
C0000C
C0000C
C0000C
C0000C
C0000C
C0000C
C0000C
C0000C
C0000C
C0000C
C0000C
C0000C
C0000C
600018
700038
3E01F0
0FFFC0
03FF00
ENDCHAR
STARTCHAR Yacute
ENCODING 221
SWIDTH 763 0
DWIDTH 24 0
BBX 22 29 1 0
BITMAP
000100
000780
000E00
003800
002000
000000
000000
E0001C
600018
300030
180060
1C00E0
0E01C0
060180
030300
018600
01CE00
00FC00
007800
003000
003000
003000
003000
003000
003000
003000
003000
003000
003000
ENDCHAR
STARTCHAR Thorn
ENCODING 222
SWIDTH 787 0
DWIDTH 25 0
BBX 20 22 3 0
BITMAP
C00000
C00000
C00000
C00000
FFFE00
FFFFC0
C001E0
C00060
C00030
C00030
C00030
C00030
C00030
C00060
C001E0
FFFFC0
FFFE00
C00000
C00000
C00000
C00000
C00000
ENDCHAR
STARTCHAR germandbls
ENCODING 223
SWIDTH 863 0
DWIDTH 28 0
BBX 23 22 3 0
BITMAP
03FF00
0FFFC0
3E01F0
700030
600018
C00018
C00018
C00030
C000F0
C1FFC0
C1FFE0
C000F8
C0001C
C0000C
C00006
C00006
C00006
C0000E
C0001C
C70078
C7FFF0
C0FF80
ENDCHAR
STARTCHAR agrave
ENCODING 224
SWIDTH 888 0
DWIDTH 28 0
BBX 23 29 2 0
BITMAP
010000
01C000
00F000
003C00
000600
000000
000000
01FF80
1FFFE0
3E00F8
20001C
00000C
000006
000006
000006
0001FE
00FFFE
07FE06
1F0006
780006
600006
C00006
C00006
C00006
C0000E
60003E
7803F6
3FFFC6
07FC06
ENDCHAR
STARTCHAR aacute
ENCODING 225
SWIDTH 888 0
DWIDTH 28 0
BBX 23 29 2 0
BITMAP
000080
0003C0
000700
001C00
001000
000000
000000
01FF80
1FFFE0
3E00F8
20001C
00000C
000006
000006
000006
0001FE
00FFFE
07FE06
1F0006
780006
600006
C00006
C00006
C00006
C0000E
60003E
7803F6
3FFFC6
07FC06
ENDCHAR
STARTCHAR acircumflex
ENCODING 226
SWIDTH 888 0
DWIDTH 28 0
BBX 23 29 2 0
BITMAP
001000
007C00
00EF00
038380
0200C0
000000
000000
01FF80
1FFFE0
3E00F8
20001C
00000C
000006
000006
000006
0001FE
00FFFE
07FE06
1F0006
780006
600006
C00006
C00006
C00006
C0000E
60003E
7803F6
3FFFC6
07FC06
ENDCHAR
STARTCHAR atilde
ENCODING 227
SWIDTH 888 0
DWIDTH 28 0
BBX 23 27 2 0
BITMAP
00F8C0
01FF80
018F80
000000
000000
01FF80
1FFFE0
3E00F8
20001C
00000C
000006
000006
000006
0001FE
00FFFE
07FE06
1F0006
780006
600006
C00006
C00006
C00006
C0000E
60003E
7803F6
3FFFC6
07FC06
ENDCHAR
STARTCHAR adieresis
ENCODING 228
SWIDTH 888 0
DWIDTH 28 0
BBX 23 26 2 0
BITMAP
00C300
00C300
000000
000000
01FF80
1FFFE0
3E00F8
20001C
00000C
000006
000006
000006
0001FE
00FFFE
07FE06
1F0006
780006
600006
C00006
C00006
C00006
C0000E
60003E
7803F6
3FFFC6
07FC06
ENDCHAR
STARTCHAR aring
ENCODING 229
SWIDTH 888 0
DWIDTH 28 0
BBX 23 29 2 0
BITMAP
003C00
00E700
00C300
00C300
00E700
003C00
000000
01FF80
1FFFE0
3E00F8
20001C
00000C
000006
000006
000006
0001FE
00FFFE
07FE06
1F0006
780006
600006
C00006
C00006
C00006
C0000E
60003E
7803F6
3FFFC6
07FC06
ENDCHAR
STARTCHAR ae
ENCODING 230
SWIDTH 1551 0
DWIDTH 50 0
BBX 46 22 2 0
BITMAP
01FF8003FC00
1FFFF01FFF80
3E00787C03C0
20001CE000E0
00000DC00070
000007800038
000007000018
000007000018
0001FE00000C
00FFFE00000C
07FE07FFFFFC
1F0007FFFFFC
780006000000
600006000000
C00003000000
C00003000000
C00003800000
C0000FC00000
60003EE00010
7803F87C00F0
3FFFC01FFFE0
07FE0003FF00
ENDCHAR
STARTCHAR ccedilla
ENCODING 231
SWIDTH 869 0
DWIDTH 28 0
BBX 24 28 2 -6
BITMAP
007FE0
03FFFE
0FC01F
1E0001
380000
700000
600000
600000
C00000
C00000
C00000
C00000
C00000
C00000
600000
600000
300000
380000
1C0001
07801F
01FFFE
003FE0
000400
000F00
000180
000180
002180
003F00
ENDCHAR
STARTCHAR egrave
ENCODING 232
SWIDTH 910 0
DWIDTH 29 0
BBX 25 29 2 0
BITMAP
00800000
01E00000
00780000
001E0000
00060000
00000000
00000000
007F8000
03FFF000
0F807800
1C001C00
38000E00
70000700
60000300
60000300
C0000180
C0000180
FFFFFF80
FFFFFF80
C0000000
C0000000
60000000
60000000
70000000
38000000
1C000200
0F801E00
03FFFC00
007FE000
ENDCHAR
STARTCHAR eacute
ENCODING 233
SWIDTH 910 0
DWIDTH 29 0
BBX 25 29 2 0
BITMAP
00004000
0001C000
00078000
001E0000
00080000
00000000
00000000
007F8000
03FFF000
0F807800
1C001C00
38000E00
70000700
60000300
60000300
C0000180
C0000180
FFFFFF80
FFFFFF80
C0000000
C0000000
60000000
60000000
70000000
38000000
1C000200
0F801E00
03FFFC00
007FE000
ENDCHAR
STARTCHAR ecircumflex
ENCODING 234
SWIDTH 910 0
DWIDTH 29 0
BBX 25 29 2 0
BITMAP
00180000
003C0000
00E70000
01C1C000
03004000
00000000
00000000
007F8000
03FFF000
0F807800
1C001C00
38000E00
70000700
60000300
60000300
C0000180
C0000180
FFFFFF80
FFFFFF80
C0000000
C0000000
60000000
60000000
70000000
38000000
1C000200
0F801E00
03FFFC00
007FE000
ENDCHAR
STARTCHAR edieresis
ENCODING 235
SWIDTH 910 0
DWIDTH 29 0
BBX 25 26 2 0
BITMAP
00C30000
00C30000
00000000
00000000
007F8000
03FFF000
0F807800
1C001C00
38000E00
70000700
60000300
60000300
C0000180
C0000180
FFFFFF80
FFFFFF80
C0000000
C0000000
60000000
60000000
70000000
38000000
1C000200
0F801E00
03FFFC00
007FE000
ENDCHAR
STARTCHAR igrave
ENCODING 236
SWIDTH 287 0
DWIDTH 9 0
BBX 8 29 -1 0
BITMAP
40
F0
3C
0F
03
00
00
06
06
06
06
06
06
06
06
06
06
06
06
06
06
06
06
06
06
06
06
06
06
ENDCHAR
STARTCHAR iacute
ENCODING 237
SWIDTH 287 0
DWIDTH 9 0
BBX 7 29 3 0
BITMAP
02
0E
3C
F0
40
00
00
60
60
60
60
60
60
60
60
60
60
60
60
60
60
60
60
60
60
60
60
60
60
ENDCHAR
STARTCHAR icircumflex
ENCODING 238
SWIDTH 287 0
DWIDTH 9 0
BBX 12 29 -2 0
BITMAP
0600
0F00
39C0
7070
C010
0000
0000
0300
0300
0300
0300
0300
0300
0300
0300
0300
0300
0300
0300
0300
0300
0300
0300
0300
0300
0300
0300
0300
0300
ENDCHAR
STARTCHAR idieresis
ENCODING 239
SWIDTH 287 0
DWIDTH 9 0
BBX 8 26 0 0
BITMAP
C3
C3
00
00
0C
0C
0C
0C
0C
0C
0C
0C
0C
0C
0C
0C
0C
0C
0C
0C
0C
0C
0C
0C
0C
0C
ENDCHAR
STARTCHAR eth
ENCODING 240
SWIDTH 910 0
DWIDTH 29 0
BBX 26 22 1 0
BITMAP
1FFFC000
1FFFF800
18007E00
18000F00
18000300
18000180
18000180
180000C0
180000C0
180000C0
FFFC00C0
FFFC00C0
180000C0
180000C0
180000C0
18000180
18000180
18000300
18000700
18003E00
1FFFF800
1FFFC000
ENDCHAR
STARTCHAR ntilde
ENCODING 241
SWIDTH 933 0
DWIDTH 30 0
BBX 23 27 3 0
BITMAP
00F080
01FF80
030F00
000000
000000
C03FC0
C1FFF0
C7C038
DE001C
F8000E
F00006
C00006
C00006
C00006
C00006
C00006
C00006
C00006
C00006
C00006
C00006
C00006
C00006
C00006
C00006
C00006
C00006
ENDCHAR
STARTCHAR ograve
ENCODING 242
SWIDTH 983 0
DWIDTH 31 0
BBX 27 29 2 0
BITMAP
00400000
00F00000
003C0000
000F0000
00030000
00000000
00000000
007FC000
03FFF800
0F803E00
1C000700
38000380
700001C0
600000C0
E00000E0
C0000060
C0000060
C0000060
C0000060
C0000060
C0000060
E00000E0
600000C0
700001C0
38000380
1C000700
0F803E00
03FFF800
007FC000
ENDCHAR
STARTCHAR oacute
ENCODING 243
SWIDTH 983 0
DWIDTH 31 0
BBX 27 29 2 0
BITMAP
00002000
0000E000
0003C000
00070000
000C0000
00000000
00000000
007FC000
03FFF800
0F803E00
1C000700
38000380
700001C0
600000C0
E00000E0
C0000060
C0000060
C0000060
C0000060
C0000060
C0000060
E00000E0
600000C0
700001C0
38000380
1C000700
0F803E00
03FFF800
007FC000
ENDCHAR
STARTCHAR ocircumflex
ENCODING 244
SWIDTH 983 0
DWIDTH 31 0
BBX 27 29 2 0
BITMAP
00040000
001F0000
007B8000
00E0E000
01802000
00000000
00000000
007FC000
03FFF800
0F803E00
1C000700
38000380
700001C0
600000C0
E00000E0
C0000060
C0000060
C0000060
C0000060
C0000060
C0000060
E00000E0
600000C0
700001C0
38000380
1C000700
0F803E00
03FFF800
007FC000
ENDCHAR
STARTCHAR otilde
ENCODING 245
SWIDTH 983 0
DWIDTH 31 0
BBX 27 27 2 0
BITMAP
003C2000
007FE000
00E3C000
00000000
00000000
007FC000
03FFF800
0F803E00
1C000700
38000380
700001C0
600000C0
E00000E0
C0000060
C0000060
C0000060
C0000060
C0000060
C0000060
E00000E0
600000C0
700001C0
38000380
1C000700
0F803E00
03FFF800
007FC000
ENDCHAR
STARTCHAR odieresis
ENCODING 246
SWIDTH 983 0
DWIDTH 31 0
BBX 27 26 2 0
BITMAP
00618000
00618000
00000000
00000000
007FC000
03FFF800
0F803E00
1C000700
38000380
700001C0
600000C0
E00000E0
C0000060
C0000060
C0000060
C0000060
C0000060
C0000060
E00000E0
600000C0
700001C0
38000380
1C000700
0F803E00
03FFF800
007FC000
ENDCHAR
STARTCHAR divide
ENCODING 247
SWIDTH 634 0
DWIDTH 20 0
BBX 14 14 3 4
BITMAP
0300
0300
0300
0000
0000
0000
FFFC
FFFC
0000
0000
0000
0300
0300
0300
ENDCHAR
STARTCHAR oslash
ENCODING 248
SWIDTH 983 0
DWIDTH 31 0
BBX 27 26 2 -2
BITMAP
00000300
00000600
007FCC00
03FFF800
0F803E00
1C003700
38006380
700061C0
6000C0C0
E00180C0
C0030060
C0030060
C0060060
C00C0060
C0180060
C0180060
E03000E0
606000C0
70C001C0
38C00380
1D800700
0F803E00
03FFF800
067FC000
0C000000
18000000
ENDCHAR
STARTCHAR ugrave
ENCODING 249
SWIDTH 931 0
DWIDTH 30 0
BBX 23 29 3 0
BITMAP
010000
01C000
02F000
003C00
000400
000000
000000
C00006
C00006
C00006
C00006
C00006
C00006
C00006
C00006
C00006
C00006
C00006
C00006
C00006
C00006
C00006
C00006
C0001E
E0003E
6000F6
3807C6
1FFF06
07F806
ENDCHAR
STARTCHAR uacute
ENCODING 250
SWIDTH 931 0
DWIDTH 30 0
BBX 23 29 3 0
BITMAP
000080
000380
000F00
001C00
003000
000000
000000
C00006
C00006
C00006
C00006
C00006
C00006
C00006
C00006
C00006
C00006
C00006
C00006
C00006
C00006
C00006
C00006
C0001E
E0003E
6000F6
3807C6
1FFF06
07F806
ENDCHAR
STARTCHAR ucircumflex
ENCODING 251
SWIDTH 931 0
DWIDTH 30 0
BBX 23 29 3 0
BITMAP
001000
007C00
00EE00
038380
060080
000000
000000
C00006
C00006
C00006
C00006
C00006
C00006
C00006
C00006
C00006
C00006
C00006
C00006
C00006
C00006
C00006
C00006
C0001E
E0003E
6000F6
3807C6
1FFF06
07F806
ENDCHAR
STARTCHAR udieresis
ENCODING 252
SWIDTH 931 0
DWIDTH 30 0
BBX 23 26 3 0
BITMAP
018600
018600
000000
000000
C00006
C00006
C00006
C00006
C00006
C00006
C00006
C00006
C00006
C00006
C00006
C00006
C00006
C00006
C00006
C00006
C0001E
E0003E
6000F6
3807C6
1FFF06
07F806
ENDCHAR
STARTCHAR yacute
ENCODING 253
SWIDTH 911 0
DWIDTH 29 0
BBX 23 29 3 0
BITMAP
000100
000780
000E00
003800
002000
000000
000000
C00006
C00006
C00006
C00006
C00006
C00006
C00006
C00006
E0000E
60001E
700036
3800E6
1E03C6
0FFF86
03FC06
000006
00000C
00001C
800078
F801F0
7FFFC0
07FE00
ENDCHAR
STARTCHAR thorn
ENCODING 254
SWIDTH 787 0
DWIDTH 25 0
BBX 20 22 3 0
BITMAP
C00000
C00000
C00000
C00000
FFFE00
FFFFC0
C001E0
C00060
C00030
C00030
C00030
C00030
C00030
C00060
C001E0
FFFFC0
FFFE00
C00000
C00000
C00000
C00000
C00000
ENDCHAR
STARTCHAR ydieresis
ENCODING 255
SWIDTH 911 0
DWIDTH 29 0
BBX 23 26 3 0
BITMAP
018600
018600
000000
000000
C00006
C00006
C00006
C00006
C00006
C00006
C00006
C00006
E0000E
60001E
700036
3800E6
1E03C6
0FFF86
03FC06
000006
00000C
00001C
800078
F801F0
7FFFC0
07FE00
ENDCHAR
STARTCHAR Amacron
ENCODING 256
SWIDTH 812 0
DWIDTH 26 0
BBX 25 26 1 0
BITMAP
00FF8000
00FF8000
00000000
00000000
001C0000
001C0000
00360000
00360000
00630000
00630000
00C18000
01C18000
0180C000
0380C000
03006000
06003000
06003000
0C001800
0FFFF800
1FFFFC00
18000C00
30000600
30000600
60000700
60000300
E0000380
ENDCHAR
STARTCHAR amacron
ENCODING 257
SWIDTH 888 0
DWIDTH 28 0
BBX 23 26 2 0
BITMAP
00FF80
00FF80
000000
000000
01FF80
1FFFE0
3E00F8
20001C
00000C
000006
000006
000006
0001FE
00FFFE
07FE06
1F0006
780006
600006
C00006
C00006
C00006
C0000E
60003E
7803F6
3FFFC6
07FC06
ENDCHAR
STARTCHAR Abreve
ENCODING 258
SWIDTH 812 0
DWIDTH 26 0
BBX 25 28 1 0
BITMAP
0181C000
01C38000
00FF0000
007E0000
00000000
00000000
001C0000
001C0000
00360000
00360000
00630000
00630000
00C18000
01C18000
0180C000
0380C000
03006000
06003000
06003000
0C001800
0FFFF800
1FFFFC00
18000C00
30000600
30000600
60000700
60000300
E0000380
ENDCHAR
STARTCHAR abreve
ENCODING 259
SWIDTH 888 0
DWIDTH 28 0
BBX 23 28 2 0
BITMAP
0181C0
01C380
00FF00
007E00
000000
000000
01FF80
1FFFE0
3E00F8
20001C
00000C
000006
000006
000006
0001FE
00FFFE
07FE06
1F0006
780006
600006
C00006
C00006
C00006
C0000E
60003E
7803F6
3FFFC6
07FC06
ENDCHAR
STARTCHAR Aogonek
ENCODING 260
SWIDTH 812 0
DWIDTH 26 0
BBX 27 28 1 -6
BITMAP
001C0000
001C0000
00360000
00360000
00630000
00630000
00C18000
01C18000
0180C000
0380C000
03006000
06003000
06003000
0C001800
0FFFF800
1FFFFC00
18000C00
30000600
30000600
60000700
60000300
E0000380
00000300
00000600
00000C00
00000C00
00000C20
000007E0
ENDCHAR
STARTCHAR aogonek
ENCODING 261
SWIDTH 888 0
DWIDTH 28 0
BBX 25 28 2 -6
BITMAP
01FF8000
1FFFE000
3E00F800
20001C00
00000C00
00000600
00000600
00000600
0001FE00
00FFFE00
07FE0600
1F000600
78000600
60000600
C0000600
C0000600
C0000600
C0000E00
60003E00
7803F600
3FFFC600
07FC0600
00000C00
00001800
00003000
00003000
00003080
00001F80
ENDCHAR
STARTCHAR Cacute
ENCODING 262
SWIDTH 869 0
DWIDTH 28 0
BBX 24 29 2 0
BITMAP
000020
0000E0
0003C0
000F00
000C00
000000
000000
007FE0
03FFFE
0FC01F
1E0001
380000
700000
600000
600000
C00000
C00000
C00000
C00000
C00000
C00000
600000
600000
700000
380000
1C0001
0F801F
03FFFE
007FE0
ENDCHAR
STARTCHAR cacute
ENCODING 263
SWIDTH 869 0
DWIDTH 28 0
BBX 24 29 2 0
BITMAP
000020
0000E0
0003C0
000F00
000400
000000
000000
007FE0
03FFFE
0FC01F
1E0001
380000
700000
600000
600000
C00000
C00000
C00000
C00000
C00000
C00000
600000
600000
700000
380000
1C0001
0F801F
03FFFE
007FE0
ENDCHAR
STARTCHAR Ccircumflex
ENCODING 264
SWIDTH 869 0
DWIDTH 28 0
BBX 24 29 2 0
BITMAP
000C00
001E00
007380
00E0E0
018020
000000
000000
007FE0
03FFFE
0FC01F
1E0001
380000
700000
600000
600000
C00000
C00000
C00000
C00000
C00000
C00000
600000
600000
700000
380000
1C0001
0F801F
03FFFE
007FE0
ENDCHAR
STARTCHAR ccircumflex
ENCODING 265
SWIDTH 869 0
DWIDTH 28 0
BBX 24 29 2 0
BITMAP
000C00
001E00
007380
00E0E0
018020
000000
000000
007FE0
03FFFE
0FC01F
1E0001
380000
700000
600000
600000
C00000
C00000
C00000
C00000
C00000
C00000
600000
600000
700000
380000
1C0001
0F801F
03FFFE
007FE0
ENDCHAR
STARTCHAR Cdotaccent
ENCODING 266
SWIDTH 869 0
DWIDTH 28 0
BBX 24 26 2 0
BITMAP
000C00
000C00
000000
000000
007FE0
03FFFE
0FC01F
1E0001
380000
700000
600000
600000
C00000
C00000
C00000
C00000
C00000
C00000
600000
600000
700000
380000
1C0001
0F801F
03FFFE
007FE0
ENDCHAR
STARTCHAR cdotaccent
ENCODING 267
SWIDTH 869 0
DWIDTH 28 0
BBX 24 26 2 0
BITMAP
000C00
000C00
000000
000000
007FE0
03FFFE
0FC01F
1E0001
380000
700000
600000
600000
C00000
C00000
C00000
C00000
C00000
C00000
600000
600000
700000
380000
1C0001
0F801F
03FFFE
007FE0
ENDCHAR
STARTCHAR Ccaron
ENCODING 268
SWIDTH 869 0
DWIDTH 28 0
BBX 24 29 2 0
BITMAP
018020
00E0E0
007380
001E00
000C00
000000
000000
007FE0
03FFFE
0FC01F
1E0001
380000
700000
600000
600000
C00000
C00000
C00000
C00000
C00000
C00000
600000
600000
700000
380000
1C0001
0F801F
03FFFE
007FE0
ENDCHAR
STARTCHAR ccaron
ENCODING 269
SWIDTH 869 0
DWIDTH 28 0
BBX 24 29 2 0
BITMAP
008020
01E0E0
007380
001F00
000C00
000000
000000
007FE0
03FFFE
0FC01F
1E0001
380000
700000
600000
600000
C00000
C00000
C00000
C00000
C00000
C00000
600000
600000
700000
380000
1C0001
0F801F
03FFFE
007FE0
ENDCHAR
STARTCHAR Dcaron
ENCODING 270
SWIDTH 910 0
DWIDTH 29 0
BBX 23 29 4 0
BITMAP
200800
383C00
0E7000
07C000
018000
000000
000000
FFFF00
FFFFC0
C001F0
C00038
C00018
C0000C
C0000C
C00006
C00006
C00006
C00006
C00006
C00006
C00006
C00006
C0000C
C0000C
C00018
C00038
C001F0
FFFFC0
FFFE00
ENDCHAR
STARTCHAR dcaron
ENCODING 271
SWIDTH 910 0
DWIDTH 29 0
BBX 23 29 4 0
BITMAP
200C00
383800
0E7000
07C000
018000
000000
000000
FFFF00
FFFFC0
C001F0
C00038
C00018
C0000C
C0000C
C00006
C00006
C00006
C00006
C00006
C00006
C00006
C00006
C0000C
C0000C
C00018
C00038
C001F0
FFFFC0
FFFE00
ENDCHAR
STARTCHAR Dcroat
ENCODING 272
SWIDTH 910 0
DWIDTH 29 0
BBX 26 22 1 0
BITMAP
1FFFC000
1FFFF800
18007E00
18000F00
18000300
18000180
18000180
180000C0
180000C0
180000C0
FFFC00C0
FFFC00C0
180000C0
180000C0
180000C0
18000180
18000180
18000300
18000700
18003E00
1FFFF800
1FFFC000
ENDCHAR
STARTCHAR dcroat
ENCODING 273
SWIDTH 910 0
DWIDTH 29 0
BBX 26 22 1 0
BITMAP
1FFFC000
1FFFF800
18007E00
18000F00
18000300
18000180
18000180
180000C0
180000C0
180000C0
FFFC00C0
FFFC00C0
180000C0
180000C0
180000C0
18000180
18000180
18000300
18000700
18003E00
1FFFF800
1FFFC000
ENDCHAR
STARTCHAR Emacron
ENCODING 274
SWIDTH 754 0
DWIDTH 24 0
BBX 18 26 4 0
BITMAP
0FF800
0FF800
000000
000000
FFFFC0
FFFFC0
C00000
C00000
C00000
C00000
C00000
C00000
C00000
FFFF80
FFFF80
C00000
C00000
C00000
C00000
C00000
C00000
C00000
C00000
C00000
FFFFC0
FFFFC0
ENDCHAR
STARTCHAR emacron
ENCODING 275
SWIDTH 910 0
DWIDTH 29 0
BBX 25 26 2 0
BITMAP
00FF8000
00FF8000
00000000
00000000
007F8000
03FFF000
0F807800
1C001C00
38000E00
70000700
60000300
60000300
C0000180
C0000180
FFFFFF80
FFFFFF80
C0000000
C0000000
60000000
60000000
70000000
38000000
1C000200
0F801E00
03FFFC00
007FE000
ENDCHAR
STARTCHAR Ebreve
ENCODING 276
SWIDTH 754 0
DWIDTH 24 0
BBX 18 28 4 0
BITMAP
180C00
0C1800
0FF800
03E000
000000
000000
FFFFC0
FFFFC0
C00000
C00000
C00000
C00000
C00000
C00000
C00000
FFFF80
FFFF80
C00000
C00000
C00000
C00000
C00000
C00000
C00000
C00000
C00000
FFFFC0
FFFFC0
ENDCHAR
STARTCHAR ebreve
ENCODING 277
SWIDTH 910 0
DWIDTH 29 0
BBX 25 28 2 0
BITMAP
0180C000
00C1C000
00FF8000
003E0000
00000000
00000000
007F8000
03FFF000
0F807800
1C001C00
38000E00
70000700
60000300
60000300
C0000180
C0000180
FFFFFF80
FFFFFF80
C0000000
C0000000
60000000
60000000
70000000
38000000
1C000200
0F801E00
03FFFC00
007FE000
ENDCHAR
STARTCHAR Edotaccent
ENCODING 278
SWIDTH 754 0
DWIDTH 24 0
BBX 18 26 4 0
BITMAP
018000
018000
000000
000000
FFFFC0
FFFFC0
C00000
C00000
C00000
C00000
C00000
C00000
C00000
FFFF80
FFFF80
C00000
C00000
C00000
C00000
C00000
C00000
C00000
C00000
C00000
FFFFC0
FFFFC0
ENDCHAR
STARTCHAR edotaccent
ENCODING 279
SWIDTH 910 0
DWIDTH 29 0
BBX 25 26 2 0
BITMAP
00180000
00180000
00000000
00000000
007F8000
03FFF000
0F807800
1C001C00
38000E00
70000700
60000300
60000300
C0000180
C0000180
FFFFFF80
FFFFFF80
C0000000
C0000000
60000000
60000000
70000000
38000000
1C000200
0F801E00
03FFFC00
007FE000
ENDCHAR
STARTCHAR Eogonek
ENCODING 280
SWIDTH 754 0
DWIDTH 24 0
BBX 18 28 4 -6
BITMAP
FFFFC0
FFFFC0
C00000
C00000
C00000
C00000
C00000
C00000
C00000
FFFF80
FFFF80
C00000
C00000
C00000
C00000
C00000
C00000
C00000
C00000
C00000
FFFFC0
FFFFC0
000700
000C00
001800
001800
001840
000FC0
ENDCHAR
STARTCHAR eogonek
ENCODING 281
SWIDTH 910 0
DWIDTH 29 0
BBX 25 27 2 -5
BITMAP
007F8000
03FFF000
0F807800
1C001C00
38000E00
70000700
60000300
60000300
C0000180
C0000180
FFFFFF80
FFFFFF80
C0000000
C0000000
60000000
60000000
70000000
38000000
1C000200
0F801E00
03FFFC00
007FF800
00001800
00003000
00003000
00003080
00001F80
ENDCHAR
STARTCHAR Ecaron
ENCODING 282
SWIDTH 754 0
DWIDTH 24 0
BBX 18 29 4 0
BITMAP
200C00
381800
0E7000
03C000
018000
000000
000000
FFFFC0
FFFFC0
C00000
C00000
C00000
C00000
C00000
C00000
C00000
FFFF80
FFFF80
C00000
C00000
C00000
C00000
C00000
C00000
C00000
C00000
C00000
FFFFC0
FFFFC0
ENDCHAR
STARTCHAR ecaron
ENCODING 283
SWIDTH 910 0
DWIDTH 29 0
BBX 25 29 2 0
BITMAP
01004000
03C1C000
00E70000
003E0000
00180000
00000000
00000000
007F8000
03FFF000
0F807800
1C001C00
38000E00
70000700
60000300
60000300
C0000180
C0000180
FFFFFF80
FFFFFF80
C0000000
C0000000
60000000
60000000
70000000
38000000
1C000200
0F801E00
03FFFC00
007FE000
ENDCHAR
STARTCHAR Gcircumflex
ENCODING 284
SWIDTH 910 0
DWIDTH 29 0
BBX 24 29 2 0
BITMAP
000400
001F00
003B80
00E0E0
018020
000000
000000
003FE0
03FFFE
0FC01F
1E0001
380000
700000
600000
600000
C00000
C00000
C00000
C007FF
C007FF
C00003
E00003
600003
700003
380003
1E0003
0F800F
03FFFF
007FF0
ENDCHAR
STARTCHAR gcircumflex
ENCODING 285
SWIDTH 910 0
DWIDTH 29 0
BBX 24 29 2 0
BITMAP
000400
001F00
003B80
00E0E0
018020
000000
000000
003FE0
03FFFE
0FC01F
1E0001
380000
700000
600000
600000
C00000
C00000
C00000
C007FF
C007FF
C00003
E00003
600003
700003
380003
1E0003
0F800F
03FFFF
007FF0
ENDCHAR
STARTCHAR Gbreve
ENCODING 286
SWIDTH 910 0
DWIDTH 29 0
BBX 24 28 2 0
BITMAP
00E060
0070E0
003FC0
001F80
000000
000000
003FE0
03FFFE
0FC01F
1E0001
380000
700000
600000
600000
C00000
C00000
C00000
C007FF
C007FF
C00003
E00003
600003
700003
380003
1E0003
0F800F
03FFFF
007FF0
ENDCHAR
STARTCHAR gbreve
ENCODING 287
SWIDTH 910 0
DWIDTH 29 0
BBX 24 28 2 0
BITMAP
00E060
0070E0
003FC0
001F80
000000
000000
003FE0
03FFFE
0FC01F
1E0001
380000
700000
600000
600000
C00000
C00000
C00000
C007FF
C007FF
C00003
E00003
600003
700003
380003
1E0003
0F800F
03FFFF
007FF0
ENDCHAR
STARTCHAR Gdotaccent
ENCODING 288
SWIDTH 910 0
DWIDTH 29 0
BBX 24 26 2 0
BITMAP
000C00
000C00
000000
000000
003FE0
03FFFE
0FC01F
1E0001
380000
700000
600000
600000
C00000
C00000
C00000
C007FF
C007FF
C00003
E00003
600003
700003
380003
1E0003
0F800F
03FFFF
007FF0
ENDCHAR
STARTCHAR gdotaccent
ENCODING 289
SWIDTH 910 0
DWIDTH 29 0
BBX 24 26 2 0
BITMAP
000C00
000C00
000000
000000
003FE0
03FFFE
0FC01F
1E0001
380000
700000
600000
600000
C00000
C00000
C00000
C007FF
C007FF
C00003
E00003
600003
700003
380003
1E0003
0F800F
03FFFF
007FF0
ENDCHAR
STARTCHAR Gcommaaccent
ENCODING 290
SWIDTH 910 0
DWIDTH 29 0
BBX 24 28 2 -6
BITMAP
003FE0
03FFFE
0FC01F
1E0001
380000
700000
600000
600000
C00000
C00000
C00000
C007FF
C007FF
C00003
E00003
600003
700003
380003
1E0003
0F800F
03FFFF
007FF0
000000
000000
000700
000600
000600
000600
ENDCHAR
STARTCHAR gcommaaccent
ENCODING 291
SWIDTH 910 0
DWIDTH 29 0
BBX 24 28 2 -6
BITMAP
003FE0
03FFFE
0FC01F
1E0001
380000
700000
600000
600000
C00000
C00000
C00000
C007FF
C007FF
C00003
E00003
600003
700003
380003
1E0003
0F800F
03FFFF
007FF0
000000
000000
000700
000600
000600
000600
ENDCHAR
STARTCHAR Hcircumflex
ENCODING 292
SWIDTH 949 0
DWIDTH 30 0
BBX 23 29 4 0
BITMAP
003000
00F800
01CE00
070700
040180
000000
000000
C00006
C00006
C00006
C00006
C00006
C00006
C00006
C00006
C00006
FFFFFE
FFFFFE
C00006
C00006
C00006
C00006
C00006
C00006
C00006
C00006
C00006
C00006
C00006
ENDCHAR
STARTCHAR hcircumflex
ENCODING 293
SWIDTH 949 0
DWIDTH 30 0
BBX 23 29 4 0
BITMAP
003000
00F800
01CE00
070700
040180
000000
000000
C00006
C00006
C00006
C00006
C00006
C00006
C00006
C00006
C00006
FFFFFE
FFFFFE
C00006
C00006
C00006
C00006
C00006
C00006
C00006
C00006
C00006
C00006
C00006
ENDCHAR
STARTCHAR Hbar
ENCODING 294
SWIDTH 949 0
DWIDTH 30 0
BBX 29 22 1 0
BITMAP
180000C0
180000C0
180000C0
180000C0
FFFFFFF8
FFFFFFF8
180000C0
180000C0
180000C0
1FFFFFC0
1FFFFFC0
180000C0
180000C0
180000C0
180000C0
180000C0
180000C0
180000C0
180000C0
180000C0
180000C0
180000C0
ENDCHAR
STARTCHAR hbar
ENCODING 295
SWIDTH 949 0
DWIDTH 30 0
BBX 29 22 1 0
BITMAP
180000C0
180000C0
180000C0
180000C0
FFFFFFF8
FFFFFFF8
180000C0
180000C0
180000C0
1FFFFFC0
1FFFFFC0
180000C0
180000C0
180000C0
180000C0
180000C0
180000C0
180000C0
180000C0
180000C0
180000C0
180000C0
ENDCHAR
STARTCHAR Itilde
ENCODING 296
SWIDTH 287 0
DWIDTH 9 0
BBX 11 27 -1 0
BITMAP
7C20
7FE0
C3C0
0000
0000
0600
0600
0600
0600
0600
0600
0600
0600
0600
0600
0600
0600
0600
0600
0600
0600
0600
0600
0600
0600
0600
0600
ENDCHAR
STARTCHAR itilde
ENCODING 297
SWIDTH 287 0
DWIDTH 9 0
BBX 11 27 -1 0
BITMAP
3C20
7FE0
C3C0
0000
0000
0600
0600
0600
0600
0600
0600
0600
0600
0600
0600
0600
0600
0600
0600
0600
0600
0600
0600
0600
0600
0600
0600
ENDCHAR
STARTCHAR Imacron
ENCODING 298
SWIDTH 287 0
DWIDTH 9 0
BBX 9 26 0 0
BITMAP
FF80
FF80
0000
0000
0C00
0C00
0C00
0C00
0C00
0C00
0C00
0C00
0C00
0C00
0C00
0C00
0C00
0C00
0C00
0C00
0C00
0C00
0C00
0C00
0C00
0C00
ENDCHAR
STARTCHAR imacron
ENCODING 299
SWIDTH 287 0
DWIDTH 9 0
BBX 9 26 0 0
BITMAP
FF80
FF80
0000
0000
0C00
0C00
0C00
0C00
0C00
0C00
0C00
0C00
0C00
0C00
0C00
0C00
0C00
0C00
0C00
0C00
0C00
0C00
0C00
0C00
0C00
0C00
ENDCHAR
STARTCHAR Ibreve
ENCODING 300
SWIDTH 287 0
DWIDTH 9 0
BBX 11 28 -1 0
BITMAP
C060
60E0
7FC0
1F00
0000
0000
0600
0600
0600
0600
0600
0600
0600
0600
0600
0600
0600
0600
0600
0600
0600
0600
0600
0600
0600
0600
0600
0600
ENDCHAR
STARTCHAR ibreve
ENCODING 301
SWIDTH 287 0
DWIDTH 9 0
BBX 11 28 -1 0
BITMAP
C060
60E0
7FC0
1F00
0000
0000
0600
0600
0600
0600
0600
0600
0600
0600
0600
0600
0600
0600
0600
0600
0600
0600
0600
0600
0600
0600
0600
0600
ENDCHAR
STARTCHAR Iogonek
ENCODING 302
SWIDTH 287 0
DWIDTH 9 0
BBX 7 28 1 -6
BITMAP
18
18
18
18
18
18
18
18
18
18
18
18
18
18
18
18
18
18
18
18
18
18
30
60
C0
C0
C2
7E
ENDCHAR
STARTCHAR iogonek
ENCODING 303
SWIDTH 287 0
DWIDTH 9 0
BBX 7 28 1 -6
BITMAP
18
18
18
18
18
18
18
18
18
18
18
18
18
18
18
18
18
18
18
18
18
18
30
60
C0
C0
C2
7E
ENDCHAR
STARTCHAR Idotaccent
ENCODING 304
SWIDTH 287 0
DWIDTH 9 0
BBX 3 26 3 0
BITMAP
C0
C0
00
00
60
60
60
60
60
60
60
60
60
60
60
60
60
60
60
60
60
60
60
60
60
60
ENDCHAR
STARTCHAR dotlessi
ENCODING 305
SWIDTH 287 0
DWIDTH 9 0
BBX 2 22 4 0
BITMAP
C0
C0
C0
C0
C0
C0
C0
C0
C0
C0
C0
C0
C0
C0
C0
C0
C0
C0
C0
C0
C0
C0
ENDCHAR
STARTCHAR IJ
ENCODING 306
SWIDTH 877 0
DWIDTH 28 0
BBX 20 22 4 0
BITMAP
C00030
C00030
C00030
C00030
C00030
C00030
C00030
C00030
C00030
C00030
C00030
C00030
C00030
C00030
C00030
C00030
C00030
C00070
C00060
C601E0
C7FFC0
C1FE00
ENDCHAR
STARTCHAR ij
ENCODING 307
SWIDTH 877 0
DWIDTH 28 0
BBX 20 22 4 0
BITMAP
C00030
C00030
C00030
C00030
C00030
C00030
C00030
C00030
C00030
C00030
C00030
C00030
C00030
C00030
C00030
C00030
C00030
C00070
C00060
C601E0
C7FFC0
C1FE00
ENDCHAR
STARTCHAR Jcircumflex
ENCODING 308
SWIDTH 590 0
DWIDTH 19 0
BBX 20 29 0 0
BITMAP
000600
000F00
0039C0
006060
00C030
000000
000000
000600
000600
000600
000600
000600
000600
000600
000600
000600
000600
000600
000600
000600
000600
000600
000600
000600
000E00
001C00
C03800
FFF000
3FC000
ENDCHAR
STARTCHAR jcircumflex
ENCODING 309
SWIDTH 590 0
DWIDTH 19 0
BBX 20 29 0 0
BITMAP
000600
000F00
0039C0
006060
00C030
000000
000000
000600
000600
000600
000600
000600
000600
000600
000600
000600
000600
000600
000600
000600
000600
000600
000600
000600
000E00
001C00
C03800
FFF000
3FC000
ENDCHAR
STARTCHAR Kcommaaccent
ENCODING 310
SWIDTH 806 0
DWIDTH 26 0
BBX 22 28 4 -6
BITMAP
C00078
C000C0
C00380
C00600
C01C00
C07000
C0E000
C38000
C70000
DE0000
F80000
DC0000
CF0000
C38000
C1E000
C07000
C03C00
C00E00
C00780
C001C0
C000E0
C00038
000004
000000
00C000
00C000
00C000
018000
ENDCHAR
STARTCHAR kcommaaccent
ENCODING 311
SWIDTH 867 0
DWIDTH 28 0
BBX 22 28 4 -6
BITMAP
C00018
C00018
C00030
C00030
C00070
C000E0
C001C0
C00380
C00F00
C07C00
FFE000
FFF800
C03F00
C00780
C001C0
C00060
C00030
C00038
C00018
C0001C
C0000C
C0000C
000000
000000
006000
006000
006000
00C000
ENDCHAR
STARTCHAR kgreenlandic
ENCODING 312
SWIDTH 867 0
DWIDTH 28 0
BBX 22 22 4 0
BITMAP
C00018
C00018
C00030
C00030
C00070
C000E0
C001C0
C00380
C00F00
C07C00
FFE000
FFF800
C03F00
C00780
C001C0
C00060
C00030
C00038
C00018
C0001C
C0000C
C0000C
ENDCHAR
STARTCHAR Lacute
ENCODING 313
SWIDTH 701 0
DWIDTH 22 0
BBX 18 29 3 0
BITMAP
020000
0E0000
3C0000
F00000
400000
000000
000000
C00000
C00000
C00000
C00000
C00000
C00000
C00000
C00000
C00000
C00000
C00000
C00000
C00000
C00000
C00000
C00000
C00000
C00000
C00000
C00000
FFFFC0
FFFFC0
ENDCHAR
STARTCHAR lacute
ENCODING 314
SWIDTH 709 0
DWIDTH 23 0
BBX 20 29 3 0
BITMAP
020000
0E0000
3C0000
F00000
400000
000000
000000
600000
600000
600000
600000
600000
600000
600000
600000
600000
600000
600000
600000
600000
600000
600000
600000
600000
600000
300000
3C0000
1FFFF0
07FFF0
ENDCHAR
STARTCHAR Lcommaaccent
ENCODING 315
SWIDTH 701 0
DWIDTH 22 0
BBX 18 28 3 -6
BITMAP
C00000
C00000
C00000
C00000
C00000
C00000
C00000
C00000
C00000
C00000
C00000
C00000
C00000
C00000
C00000
C00000
C00000
C00000
C00000
C00000
FFFFC0
FFFFC0
000000
000000
006000
006000
00C000
00C000
ENDCHAR
STARTCHAR lcommaaccent
ENCODING 316
SWIDTH 709 0
DWIDTH 23 0
BBX 19 28 4 -6
BITMAP
C00000
C00000
C00000
C00000
C00000
C00000
C00000
C00000
C00000
C00000
C00000
C00000
C00000
C00000
C00000
C00000
C00000
C00000
600000
780000
3FFFE0
0FFFE0
000000
000000
00E000
00C000
00C000
00C000
ENDCHAR
STARTCHAR Lcaron
ENCODING 317
SWIDTH 701 0
DWIDTH 22 0
BBX 18 22 3 0
BITMAP
C00C00
C00800
C01800
C01800
C01800
C01000
C00000
C00000
C00000
C00000
C00000
C00000
C00000
C00000
C00000
C00000
C00000
C00000
C00000
C00000
FFFFC0
FFFFC0
ENDCHAR
STARTCHAR lcaron
ENCODING 318
SWIDTH 709 0
DWIDTH 23 0
BBX 19 22 4 0
BITMAP
C01800
C01000
C03000
C03000
C03000
C02000
C00000
C00000
C00000
C00000
C00000
C00000
C00000
C00000
C00000
C00000
C00000
C00000
600000
780000
3FFFE0
0FFFE0
ENDCHAR
STARTCHAR Ldot
ENCODING 319
SWIDTH 701 0
DWIDTH 22 0
BBX 18 22 3 0
BITMAP
C00000
C00000
C00000
C00000
C00000
C00000
C00000
C00000
C00000
C00000
C00E00
C00E00
C00E00
C00000
C00000
C00000
C00000
C00000
C00000
C00000
FFFFC0
FFFFC0
ENDCHAR
STARTCHAR ldotaccent
ENCODING 320
SWIDTH 709 0
DWIDTH 23 0
BBX 19 22 4 0
BITMAP
C00000
C00000
C00000
C00000
C00000
C00000
C00000
C00000
C00000
C00000
C01C00
C01C00
C01C00
C00000
C00000
C00000
C00000
C00000
600000
780000
3FFFE0
0FFFE0
ENDCHAR
STARTCHAR Lslash
ENCODING 321
SWIDTH 701 0
DWIDTH 22 0
BBX 22 22 -1 0
BITMAP
0C0000
0C0000
0C0000
0C0000
0C0000
0C0000
0C0000
0C0000
0C3000
0CF000
0FC000
1E0000
FC0000
CC0000
0C0000
0C0000
0C0000
0C0000
0C0000
0C0000
0FFFFC
0FFFFC
ENDCHAR
STARTCHAR lslash
ENCODING 322
SWIDTH 709 0
DWIDTH 23 0
BBX 23 22 0 0
BITMAP
0C0000
0C0000
0C0000
0C0000
0C0000
0C0000
0C0000
0C0000
0C3000
0CF000
0FC000
1E0000
FC0000
CC0000
0C0000
0C0000
0C0000
0C0000
0E0000
078000
03FFFE
00FFFE
ENDCHAR
STARTCHAR Nacute
ENCODING 323
SWIDTH 936 0
DWIDTH 30 0
BBX 23 29 3 0
BITMAP
000080
000380
000F40
001C00
003000
000000
000000
E00006
F00006
F80006
DC0006
CE0006
C70006
C30006
C18006
C0C006
C06006
C03006
C01806
C00C06
C00606
C00306
C00186
C001C6
C000E6
C00076
C0003E
C0001E
C0000E
ENDCHAR
STARTCHAR nacute
ENCODING 324
SWIDTH 933 0
DWIDTH 30 0
BBX 23 29 3 0
BITMAP
000080
000380
000F00
003C00
001000
000000
000000
C03FC0
C1FFF0
C7C038
DE001C
F8000E
F00006
C00006
C00006
C00006
C00006
C00006
C00006
C00006
C00006
C00006
C00006
C00006
C00006
C00006
C00006
C00006
C00006
ENDCHAR
STARTCHAR Ncommaaccent
ENCODING 325
SWIDTH 936 0
DWIDTH 30 0
BBX 23 28 3 -6
BITMAP
E00006
F00006
F80006
DC0006
CE0006
C70006
C30006
C18006
C0C006
C06006
C03006
C01806
C00C06
C00606
C00306
C00186
C001C6
C000E6
C00076
C0003E
C0001E
C0000E
000000
000000
001C00
001800
001800
001000
ENDCHAR
STARTCHAR ncommaaccent
ENCODING 326
SWIDTH 933 0
DWIDTH 30 0
BBX 23 28 3 -6
BITMAP
C03FC0
C1FFF0
C7C038
DE001C
F8000E
F00006
C00006
C00006
C00006
C00006
C00006
C00006
C00006
C00006
C00006
C00006
C00006
C00006
C00006
C00006
C00006
C00006
000000
000000
001C00
001800
001800
003000
ENDCHAR
STARTCHAR Ncaron
ENCODING 327
SWIDTH 936 0
DWIDTH 30 0
BBX 23 29 3 0
BITMAP
020080
0783C0
00EE00
007C00
001000
000000
000000
E00006
F00006
F80006
DC0006
CE0006
C70006
C30006
C18006
C0C006
C06006
C03006
C01806
C00C06
C00606
C00306
C00186
C001C6
C000E6
C00076
C0003E
C0001E
C0000E
ENDCHAR
STARTCHAR ncaron
ENCODING 328
SWIDTH 933 0
DWIDTH 30 0
BBX 23 29 3 0
BITMAP
020080
078380
01CE00
007C00
003000
000000
000000
C03FC0
C1FFF0
C7C038
DE001C
F8000E
F00006
C00006
C00006
C00006
C00006
C00006
C00006
C00006
C00006
C00006
C00006
C00006
C00006
C00006
C00006
C00006
C00006
ENDCHAR
STARTCHAR napostrophe
ENCODING 329
SWIDTH 1025 0
DWIDTH 33 0
BBX 29 22 0 0
BITMAP
6300FF00
6307FFC0
431F00E0
C3780070
C3E00030
C3C00018
03000018
03000018
03000018
03000018
03000018
03000018
03000018
03000018
03000018
03000018
03000018
03000018
03000018
03000018
03000018
03000018
ENDCHAR
STARTCHAR Eng
ENCODING 330
SWIDTH 936 0
DWIDTH 30 0
BBX 23 22 3 0
BITMAP
E00006
F00006
F80006
CE0006
C70006
C38006
C0E006
C07006
C03806
C00E06
C00706
C00386
C001E6
C00076
C0003E
C0001E
C00006
C0000E
C0000C
C0603C
C07FF8
C01FE0
ENDCHAR
STARTCHAR eng
ENCODING 331
SWIDTH 933 0
DWIDTH 30 0
BBX 23 22 3 0
BITMAP
C03FC0
C1FFF0
C7C038
DE000C
F8000E
F00006
C00006
C00006
C00006
C00006
C00006
C00006
C00006
C00006
C00006
C00006
C00006
C0000E
C0000C
C0603C
C07FF8
C01FE0
ENDCHAR
STARTCHAR Omacron
ENCODING 332
SWIDTH 983 0
DWIDTH 31 0
BBX 27 26 2 0
BITMAP
007FC000
007FC000
00000000
00000000
007FC000
03FFF800
0F803E00
1C000700
38000380
700001C0
600000C0
E00000E0
C0000060
C0000060
C0000060
C0000060
C0000060
C0000060
E00000E0
600000C0
700001C0
38000380
1C000700
0F803E00
03FFF800
007FC000
ENDCHAR
STARTCHAR omacron
ENCODING 333
SWIDTH 983 0
DWIDTH 31 0
BBX 27 26 2 0
BITMAP
007FC000
007FC000
00000000
00000000
007FC000
03FFF800
0F803E00
1C000700
38000380
700001C0
600000C0
E00000E0
C0000060
C0000060
C0000060
C0000060
C0000060
C0000060
E00000E0
600000C0
700001C0
38000380
1C000700
0F803E00
03FFF800
007FC000
ENDCHAR
STARTCHAR Obreve
ENCODING 334
SWIDTH 983 0
DWIDTH 31 0
BBX 27 28 2 0
BITMAP
00E06000
0070E000
003FC000
001F0000
00000000
00000000
007FC000
03FFF800
0F803E00
1C000700
38000380
700001C0
600000C0
E00000E0
C0000060
C0000060
C0000060
C0000060
C0000060
C0000060
E00000E0
600000C0
700001C0
38000380
1C000700
0F803E00
03FFF800
007FC000
ENDCHAR
STARTCHAR obreve
ENCODING 335
SWIDTH 983 0
DWIDTH 31 0
BBX 27 28 2 0
BITMAP
00E06000
0070E000
003FC000
001F0000
00000000
00000000
007FC000
03FFF800
0F803E00
1C000700
38000380
700001C0
600000C0
E00000E0
C0000060
C0000060
C0000060
C0000060
C0000060
C0000060
E00000E0
600000C0
700001C0
38000380
1C000700
0F803E00
03FFF800
007FC000
ENDCHAR
STARTCHAR Ohungarumlaut
ENCODING 336
SWIDTH 983 0
DWIDTH 31 0
BBX 27 28 2 0
BITMAP
00082000
001C7000
0030C000
00618000
00000000
00000000
007FC000
03FFF800
0F803E00
1C000700
38000380
700001C0
600000C0
E00000E0
C0000060
C0000060
C0000060
C0000060
C0000060
C0000060
E00000E0
600000C0
700001C0
38000380
1C000700
0F803E00
03FFF800
007FC000
ENDCHAR
STARTCHAR ohungarumlaut
ENCODING 337
SWIDTH 983 0
DWIDTH 31 0
BBX 27 28 2 0
BITMAP
00082000
001C7000
0030C000
00618000
00000000
00000000
007FC000
03FFF800
0F803E00
1C000700
38000380
700001C0
600000C0
E00000E0
C0000060
C0000060
C0000060
C0000060
C0000060
C0000060
E00000E0
600000C0
700001C0
38000380
1C000700
0F803E00
03FFF800
007FC000
ENDCHAR
STARTCHAR OE
ENCODING 338
SWIDTH 1338 0
DWIDTH 43 0
BBX 38 22 2 0
BITMAP
007FFFFFFC
03FFFFFFFC
0F801C0000
1C000C0000
38000C0000
70000C0000
60000C0000
60000C0000
C0000C0000
C0000FFFF8
C0000FFFF8
C0000C0000
C0000C0000
C0000C0000
E0000C0000
60000C0000
70000C0000
38000C0000
1C000C0000
0F801C0000
03FFFFFFFC
007FFFFFFC
ENDCHAR
STARTCHAR oe
ENCODING 339
SWIDTH 1688 0
DWIDTH 54 0
BBX 50 22 2 0
BITMAP
007FC0003FC000
03FFF801FFF800
0F803E07C03C00
1C00070E000E00
3800039C000700
700001F8000380
600000F0000180
E00000F0000180
C00000600000C0
C00000600000C0
C000007FFFFFC0
C000007FFFFFC0
C0000060000000
C0000060000000
E00000F0000000
600000F0000000
700001F8000000
3800039C000000
1C00070E000100
0F803E07C00F00
03FFF801FFFE00
007FC0003FF000
ENDCHAR
STARTCHAR Racute
ENCODING 340
SWIDTH 833 0
DWIDTH 27 0
BBX 22 29 4 0
BITMAP
000800
003C00
007000
01C000
010000
000000
000000
FFFE00
FFFFC0
C001E0
C00060
C00030
C00030
C00030
C00030
C00030
C00060
C001E0
FFFFC0
FFFF00
C00600
C00300
C00180
C001C0
C000C0
C00060
C00030
C00038
C0001C
ENDCHAR
STARTCHAR racute
ENCODING 341
SWIDTH 609 0
DWIDTH 20 0
BBX 16 29 4 0
BITMAP
0010
0070
01E0
0780
0200
0000
0000
C07F
C1FF
C780
CE00
F800
F000
E000
C000
C000
C000
C000
C000
C000
C000
C000
C000
C000
C000
C000
C000
C000
C000
ENDCHAR
STARTCHAR Rcommaaccent
ENCODING 342
SWIDTH 833 0
DWIDTH 27 0
BBX 22 28 4 -6
BITMAP
FFFE00
FFFFC0
C001E0
C00060
C00030
C00030
C00030
C00030
C00030
C00060
C001E0
FFFFC0
FFFF00
C00600
C00300
C00180
C001C0
C000C0
C00060
C00030
C00038
C0001C
000000
000000
00E000
00C000
00C000
00C000
ENDCHAR
STARTCHAR rcommaaccent
ENCODING 343
SWIDTH 609 0
DWIDTH 20 0
BBX 17 28 3 -6
BITMAP
603F80
60FF80
63C000
670000
7C0000
780000
700000
600000
600000
600000
600000
600000
600000
600000
600000
600000
600000
600000
600000
600000
600000
600000
000000
000000
600000
600000
C00000
C00000
ENDCHAR
STARTCHAR Rcaron
ENCODING 344
SWIDTH 833 0
DWIDTH 27 0
BBX 22 29 4 0
BITMAP
200800
383C00
0E7000
07C000
018000
000000
000000
FFFE00
FFFFC0
C001E0
C00060
C00030
C00030
C00030
C00030
C00030
C00060
C001E0
FFFFC0
FFFF00
C00600
C00300
C00180
C001C0
C000C0
C00060
C00030
C00038
C0001C
ENDCHAR
STARTCHAR rcaron
ENCODING 345
SWIDTH 609 0
DWIDTH 20 0
BBX 16 29 4 0
BITMAP
4010
F070
39C0
0F80
0600
0000
0000
C07F
C1FF
C780
CE00
F800
F000
E000
C000
C000
C000
C000
C000
C000
C000
C000
C000
C000
C000
C000
C000
C000
C000
ENDCHAR
STARTCHAR Sacute
ENCODING 346
SWIDTH 787 0
DWIDTH 25 0
BBX 20 29 3 0
BITMAP
000400
000E00
003C00
00F000
00C000
000000
000000
07FC00
3FFF80
7803C0
E00040
C00000
C00000
C00000
600000
380000
1F8000
03F800
003F00
0007C0
0000E0
000070
000030
000030
000030
800060
F003E0
7FFF80
07FE00
ENDCHAR
STARTCHAR sacute
ENCODING 347
SWIDTH 787 0
DWIDTH 25 0
BBX 20 29 3 0
BITMAP
000400
000E00
003C00
00F000
00C000
000000
000000
07FC00
3FFF80
7803C0
E00040
C00000
C00000
C00000
600000
380000
1F8000
03F800
003F00
0007C0
0000E0
000070
000030
000030
000030
800060
F003E0
7FFF80
07FE00
ENDCHAR
STARTCHAR Scircumflex
ENCODING 348
SWIDTH 787 0
DWIDTH 25 0
BBX 20 29 3 0
BITMAP
00C000
01E000
073800
0C0C00
100600
000000
000000
07FC00
3FFF80
7803C0
E00040
C00000
C00000
C00000
600000
380000
1F8000
03F800
003F00
0007C0
0000E0
000070
000030
000030
000030
800060
F003E0
7FFF80
07FE00
ENDCHAR
STARTCHAR scircumflex
ENCODING 349
SWIDTH 787 0
DWIDTH 25 0
BBX 20 29 3 0
BITMAP
00C000
01E000
073800
0C0C00
100600
000000
000000
07FC00
3FFF80
7803C0
E00040
C00000
C00000
C00000
600000
380000
1F8000
03F800
003F00
0007C0
0000E0
000070
000030
000030
000030
800060
F003E0
7FFF80
07FE00
ENDCHAR
STARTCHAR Scedilla
ENCODING 350
SWIDTH 787 0
DWIDTH 25 0
BBX 20 28 3 -6
BITMAP
07FC00
3FFF80
7803C0
E00040
C00000
C00000
C00000
600000
780000
1F8000
03F800
007F00
0007C0
0000E0
000070
000030
000030
000030
800060
F003E0
7FFF80
0FFC00
004000
00F000
001800
001800
021800
03F000
ENDCHAR
STARTCHAR scedilla
ENCODING 351
SWIDTH 787 0
DWIDTH 25 0
BBX 20 28 3 -6
BITMAP
07FC00
3FFF80
7803C0
E00040
C00000
C00000
C00000
600000
780000
1F8000
03F800
007F00
0007C0
0000E0
000070
000030
000030
000030
800060
F003E0
7FFF80
0FFC00
004000
00F000
001800
001800
021800
03F000
ENDCHAR
STARTCHAR Scaron
ENCODING 352
SWIDTH 787 0
DWIDTH 25 0
BBX 20 29 3 0
BITMAP
100600
1C0C00
073800
01E000
00C000
000000
000000
07FC00
3FFF80
7803C0
E00040
C00000
C00000
C00000
600000
380000
1F8000
03F800
003F00
0007C0
0000E0
000070
000030
000030
000030
800060
F003E0
7FFF80
07FE00
ENDCHAR
STARTCHAR scaron
ENCODING 353
SWIDTH 787 0
DWIDTH 25 0
BBX 20 29 3 0
BITMAP
100600
1C0C00
073800
01E000
00C000
000000
000000
07FC00
3FFF80
7803C0
E00040
C00000
C00000
C00000
600000
380000
1F8000
03F800
003F00
0007C0
0000E0
000070
000030
000030
000030
800060
F003E0
7FFF80
07FE00
ENDCHAR
STARTCHAR Tcommaaccent
ENCODING 354
SWIDTH 708 0
DWIDTH 23 0
BBX 22 28 0 -6
BITMAP
FFFFFC
FFFFFC
003000
003000
003000
003000
003000
003000
003000
003000
003000
003000
003000
003000
003000
003000
003000
003000
003000
003000
003000
003000
000000
000000
003800
003000
003000
003000
ENDCHAR
STARTCHAR tcommaaccent
ENCODING 355
SWIDTH 708 0
DWIDTH 23 0
BBX 22 28 0 -6
BITMAP
FFFFFC
FFFFFC
003000
003000
003000
003000
003000
003000
003000
003000
003000
003000
003000
003000
003000
003000
003000
003000
003000
003000
003000
003000
000000
000000
003800
003000
003000
003000
ENDCHAR
STARTCHAR Tcaron
ENCODING 356
SWIDTH 708 0
DWIDTH 23 0
BBX 22 29 0 0
BITMAP
040180
070300
01CE00
007800
003000
000000
000000
FFFFFC
FFFFFC
003000
003000
003000
003000
003000
003000
003000
003000
003000
003000
003000
003000
003000
003000
003000
003000
003000
003000
003000
003000
ENDCHAR
STARTCHAR tcaron
ENCODING 357
SWIDTH 708 0
DWIDTH 23 0
BBX 22 29 0 0
BITMAP
040180
070300
01CE00
007800
003000
000000
000000
FFFFFC
FFFFFC
003000
003000
003000
003000
003000
003000
003000
003000
003000
003000
003000
003000
003000
003000
003000
003000
003000
003000
003000
003000
ENDCHAR
STARTCHAR Tbar
ENCODING 358
SWIDTH 708 0
DWIDTH 23 0
BBX 22 22 0 0
BITMAP
FFFFFC
FFFFFC
003000
003000
003000
003000
003000
003000
3FFFF0
3FFFF0
003000
003000
003000
003000
003000
003000
003000
003000
003000
003000
003000
003000
ENDCHAR
STARTCHAR tbar
ENCODING 359
SWIDTH 708 0
DWIDTH 23 0
BBX 22 22 0 0
BITMAP
FFFFFC
FFFFFC
003000
003000
003000
003000
003000
003000
3FFFF0
3FFFF0
003000
003000
003000
003000
003000
003000
003000
003000
003000
003000
003000
003000
ENDCHAR
STARTCHAR Utilde
ENCODING 360
SWIDTH 891 0
DWIDTH 29 0
BBX 22 27 3 0
BITMAP
01F080
03FF80
031F00
000000
000000
C0000C
C0000C
C0000C
C0000C
C0000C
C0000C
C0000C
C0000C
C0000C
C0000C
C0000C
C0000C
C0000C
C0000C
C0000C
C0000C
C0000C
600018
700038
3E01F0
0FFFC0
03FF00
ENDCHAR
STARTCHAR utilde
ENCODING 361
SWIDTH 931 0
DWIDTH 30 0
BBX 23 27 3 0
BITMAP
00F080
01FF80
038F00
000000
000000
C00006
C00006
C00006
C00006
C00006
C00006
C00006
C00006
C00006
C00006
C00006
C00006
C00006
C00006
C00006
C00006
C0001E
E0003E
6000F6
3807C6
1FFF06
07F806
ENDCHAR
STARTCHAR Umacron
ENCODING 362
SWIDTH 891 0
DWIDTH 29 0
BBX 22 26 3 0
BITMAP
01FF00
01FF00
000000
000000
C0000C
C0000C
C0000C
C0000C
C0000C
C0000C
C0000C
C0000C
C0000C
C0000C
C0000C
C0000C
C0000C
C0000C
C0000C
C0000C
C0000C
600018
700038
3E01F0
0FFFC0
03FF00
ENDCHAR
STARTCHAR umacron
ENCODING 363
SWIDTH 931 0
DWIDTH 30 0
BBX 23 26 3 0
BITMAP
01FF00
01FF00
000000
000000
C00006
C00006
C00006
C00006
C00006
C00006
C00006
C00006
C00006
C00006
C00006
C00006
C00006
C00006
C00006
C00006
C0001E
E0003E
6000F6
3807C6
1FFF06
07F806
ENDCHAR
STARTCHAR Ubreve
ENCODING 364
SWIDTH 891 0
DWIDTH 29 0
BBX 22 28 3 0
BITMAP
030180
038700
01FE00
007C00
000000
000000
C0000C
C0000C
C0000C
C0000C
C0000C
C0000C
C0000C
C0000C
C0000C
C0000C
C0000C
C0000C
C0000C
C0000C
C0000C
C0000C
C0000C
600018
700038
3E01F0
0FFFC0
03FF00
ENDCHAR
STARTCHAR ubreve
ENCODING 365
SWIDTH 931 0
DWIDTH 30 0
BBX 23 28 3 0
BITMAP
038180
01C380
00FF00
007E00
000000
000000
C00006
C00006
C00006
C00006
C00006
C00006
C00006
C00006
C00006
C00006
C00006
C00006
C00006
C00006
C00006
C00006
C0001E
E0003E
6000F6
3807C6
1FFF06
07F806
ENDCHAR
STARTCHAR Uring
ENCODING 366
SWIDTH 891 0
DWIDTH 29 0
BBX 22 29 3 0
BITMAP
007800
01CE00
018600
018600
01CE00
007800
000000
C0000C
C0000C
C0000C
C0000C
C0000C
C0000C
C0000C
C0000C
C0000C
C0000C
C0000C
C0000C
C0000C
C0000C
C0000C
C0000C
C0000C
600018
700038
3E01F0
0FFFC0
03FF00
ENDCHAR
STARTCHAR uring
ENCODING 367
SWIDTH 931 0
DWIDTH 30 0
BBX 23 29 3 0
BITMAP
007800
01CE00
018600
018600
01CE00
007800
000000
C00006
C00006
C00006
C00006
C00006
C00006
C00006
C00006
C00006
C00006
C00006
C00006
C00006
C00006
C00006
C00006
C0001E
E0003E
6000F6
3807C6
1FFF06
07F806
ENDCHAR
STARTCHAR Uhungarumlaut
ENCODING 368
SWIDTH 891 0
DWIDTH 29 0
BBX 22 28 3 0
BITMAP
002080
0071C0
00C300
018600
000000
000000
C0000C
C0000C
C0000C
C0000C
C0000C
C0000C
C0000C
C0000C
C0000C
C0000C
C0000C
C0000C
C0000C
C0000C
C0000C
C0000C
C0000C
600018
700038
3E01F0
0FFFC0
03FF00
ENDCHAR
STARTCHAR uhungarumlaut
ENCODING 369
SWIDTH 931 0
DWIDTH 30 0
BBX 23 28 3 0
BITMAP
002080
0071C0
00C300
018600
000000
000000
C00006
C00006
C00006
C00006
C00006
C00006
C00006
C00006
C00006
C00006
C00006
C00006
C00006
C00006
C00006
C00006
C0001E
E0003E
6000F6
3807C6
1FFF06
07F806
ENDCHAR
STARTCHAR Uogonek
ENCODING 370
SWIDTH 891 0
DWIDTH 29 0
BBX 22 28 3 -6
BITMAP
C0000C
C0000C
C0000C
C0000C
C0000C
C0000C
C0000C
C0000C
C0000C
C0000C
C0000C
C0000C
C0000C
C0000C
C0000C
C0000C
C0000C
600018
700038
3E01F0
0FFFE0
03FF00
006000
00E000
00C000
00C000
00C200
007E00
ENDCHAR
STARTCHAR uogonek
ENCODING 371
SWIDTH 931 0
DWIDTH 30 0
BBX 25 28 3 -6
BITMAP
C0000600
C0000600
C0000600
C0000600
C0000600
C0000600
C0000600
C0000600
C0000600
C0000600
C0000600
C0000600
C0000600
C0000600
C0000600
C0000600
C0001E00
E0003E00
6000F600
3807C600
1FFF0600
07F80600
00000C00
00001800
00003000
00003000
00003080
00001F80
ENDCHAR
STARTCHAR Wcircumflex
ENCODING 372
SWIDTH 1266 0
DWIDTH 41 0
BBX 39 29 1 0
BITMAP
0000300000
0000F80000
0001CE0000
0007070000
0004018000
0000000000
0000000000
E00038000E
600038000C
70006C001C
30006C0018
3000EE0018
1800C60030
1800C60030
1801830030
0C01830060
0C01830060
06030180C0
06030180C0
060701C0C0
030600C180
030600C180
038C006380
018C006300
018C006300
00D8003600
00D8003600
00F8003E00
0070001C00
ENDCHAR
STARTCHAR wcircumflex
ENCODING 373
SWIDTH 1266 0
DWIDTH 41 0
BBX 39 29 1 0
BITMAP
0000300000
0000F80000
0001CE0000
0007070000
0004018000
0000000000
0000000000
E00038000E
600038000C
70006C001C
30006C0018
3000EE0018
1800C60030
1800C60030
1801830030
0C01830060
0C01830060
06030180C0
06030180C0
060701C0C0
030600C180
030600C180
038C006380
018C006300
018C006300
00D8003600
00D8003600
00F8003E00
0070001C00
ENDCHAR
STARTCHAR Ycircumflex
ENCODING 374
SWIDTH 763 0
DWIDTH 24 0
BBX 22 29 1 0
BITMAP
003000
00F800
01CE00
070700
040180
000000
000000
E0001C
600018
300030
180060
1C00E0
0E01C0
060180
030300
018600
01CE00
00FC00
007800
003000
003000
003000
003000
003000
003000
003000
003000
003000
003000
ENDCHAR
STARTCHAR ycircumflex
ENCODING 375
SWIDTH 911 0
DWIDTH 29 0
BBX 23 29 3 0
BITMAP
003000
00F800
01CE00
070700
040180
000000
000000
C00006
C00006
C00006
C00006
C00006
C00006
C00006
C00006
E0000E
60001E
700036
3800E6
1E03C6
0FFF86
03FC06
000006
00000C
00001C
800078
F801F0
7FFFC0
07FE00
ENDCHAR
STARTCHAR Ydieresis
ENCODING 376
SWIDTH 763 0
DWIDTH 24 0
BBX 22 26 1 0
BITMAP
018600
018600
000000
000000
E0001C
600018
300030
180060
1C00E0
0E01C0
060180
030300
018600
01CE00
00FC00
007800
003000
003000
003000
003000
003000
003000
003000
003000
003000
003000
ENDCHAR
STARTCHAR Zacute
ENCODING 377
SWIDTH 728 0
DWIDTH 23 0
BBX 19 29 2 0
BITMAP
000200
000E00
003C00
007000
00C000
000000
000000
FFFFE0
FFFFE0
0000C0
000180
000300
000600
000C00
001800
003800
007000
006000
00C000
018000
030000
060000
0E0000
1C0000
380000
300000
600000
FFFFE0
FFFFE0
ENDCHAR
STARTCHAR zacute
ENCODING 378
SWIDTH 728 0
DWIDTH 23 0
BBX 19 29 2 0
BITMAP
000200
000E00
003C00
007000
00C000
000000
000000
FFFFE0
FFFFE0
0000C0
000180
000300
000600
000C00
001800
003800
007000
006000
00C000
018000
030000
060000
0E0000
1C0000
380000
300000
600000
FFFFE0
FFFFE0
ENDCHAR
STARTCHAR Zdotaccent
ENCODING 379
SWIDTH 728 0
DWIDTH 23 0
BBX 19 26 2 0
BITMAP
00C000
00C000
000000
000000
FFFFE0
FFFFE0
0000C0
000180
000300
000600
000C00
001800
003800
007000
006000
00C000
018000
030000
060000
0E0000
1C0000
380000
300000
600000
FFFFE0
FFFFE0
ENDCHAR
STARTCHAR zdotaccent
ENCODING 380
SWIDTH 728 0
DWIDTH 23 0
BBX 19 26 2 0
BITMAP
00C000
00C000
000000
000000
FFFFE0
FFFFE0
0000C0
000180
000300
000600
000C00
001800
003800
007000
006000
00C000
018000
030000
060000
0E0000
1C0000
380000
300000
600000
FFFFE0
FFFFE0
ENDCHAR
STARTCHAR Zcaron
ENCODING 381
SWIDTH 728 0
DWIDTH 23 0
BBX 19 29 2 0
BITMAP
080200
1E0E00
03B800
01F000
004000
000000
000000
FFFFE0
FFFFE0
0000C0
000180
000300
000600
000C00
001800
003800
007000
006000
00C000
018000
030000
060000
0E0000
1C0000
380000
300000
600000
FFFFE0
FFFFE0
ENDCHAR
STARTCHAR zcaron
ENCODING 382
SWIDTH 728 0
DWIDTH 23 0
BBX 19 29 2 0
BITMAP
080200
1E0E00
03B800
01F000
004000
000000
000000
FFFFE0
FFFFE0
0000C0
000180
000300
000600
000C00
001800
003800
007000
006000
00C000
018000
030000
060000
0E0000
1C0000
380000
300000
600000
FFFFE0
FFFFE0
ENDCHAR
STARTCHAR florin
ENCODING 402
SWIDTH 835 0
DWIDTH 27 0
BBX 25 23 1 -1
BITMAP
00007F00
0000FF80
0001C080
00038000
00030000
00030000
00060000
00060000
00FFF000
00FFF000
000C0000
000C0000
000C0000
00180000
00180000
00180000
00300000
00300000
00700000
00600000
81E00000
FFC00000
7F000000
ENDCHAR
STARTCHAR AEacute
ENCODING 508
SWIDTH 1172 0
DWIDTH 38 0
BBX 35 29 0 0
BITMAP
0000000800
0000003800
000000F000
000003C000
0000010000
0000000000
0000000000
0003FFFFE0
0003FFFFE0
0006600000
000E600000
000C600000
0018600000
0038600000
0030600000
0060600000
00C07FFFC0
00C07FFFC0
0180600000
0300600000
0300600000
07FFE00000
0FFFE00000
0C00600000
1800600000
3800600000
3000600000
70007FFFE0
E0007FFFE0
ENDCHAR
STARTCHAR aeacute
ENCODING 509
SWIDTH 1551 0
DWIDTH 50 0
BBX 46 29 2 0
BITMAP
000000100000
000000780000
000000E00000
000003800000
000002000000
000000000000
000000000000
01FF8003FC00
1FFFF01FFF80
3E00787C03C0
20001CE000E0
00000DC00070
000007800038
000007000018
000007000018
0001FE00000C
00FFFE00000C
07FE07FFFFFC
1F0007FFFFFC
780006000000
600006000000
C00003000000
C00003000000
C00003800000
C0000FC00000
60003EE00010
7803F87C00F0
3FFFC01FFFE0
07FE0003FF00
ENDCHAR
STARTCHAR Oslashacute
ENCODING 510
SWIDTH 983 0
DWIDTH 31 0
BBX 27 31 2 -2
BITMAP
00002000
0000E000
0003C000
00070000
000C0000
00000300
00000600
007FCC00
03FFF800
0F803E00
1C003700
38006380
700061C0
6000C0C0
E00180C0
C0030060
C0030060
C0060060
C00C0060
C0180060
C0180060
E03000E0
606000C0
70C001C0
38C00380
1D800700
0F803E00
03FFF800
067FC000
0C000000
18000000
ENDCHAR
STARTCHAR oslashacute
ENCODING 511
SWIDTH 983 0
DWIDTH 31 0
BBX 27 31 2 -2
BITMAP
00002000
0000E000
0003C000
00070000
000C0000
00000300
00000600
007FCC00
03FFF800
0F803E00
1C003700
38006380
700061C0
6000C0C0
E00180C0
C0030060
C0030060
C0060060
C00C0060
C0180060
C0180060
E03000E0
606000C0
70C001C0
38C00380
1D800700
0F803E00
03FFF800
067FC000
0C000000
18000000
ENDCHAR
STARTCHAR dotlessj
ENCODING 567
SWIDTH 590 0
DWIDTH 19 0
BBX 15 22 0 0
BITMAP
0006
0006
0006
0006
0006
0006
0006
0006
0006
0006
0006
0006
0006
0006
0006
0006
0006
000E
001C
C038
FFF0
3FC0
ENDCHAR
STARTCHAR circumflex
ENCODING 710
SWIDTH 527 0
DWIDTH 17 0
BBX 12 5 2 18
BITMAP
0600
0F00
39C0
6060
C030
ENDCHAR
STARTCHAR caron
ENCODING 711
SWIDTH 527 0
DWIDTH 17 0
BBX 12 5 2 18
BITMAP
C030
6060
39C0
0F00
0600
ENDCHAR
STARTCHAR breve
ENCODING 728
SWIDTH 527 0
DWIDTH 17 0
BBX 11 4 3 18
BITMAP
C060
60C0
7FC0
1F00
ENDCHAR
STARTCHAR dotaccent
ENCODING 729
SWIDTH 527 0
DWIDTH 17 0
BBX 2 2 7 18
BITMAP
C0
C0
ENDCHAR
STARTCHAR ring
ENCODING 730
SWIDTH 527 0
DWIDTH 17 0
BBX 8 6 4 17
BITMAP
3C
E7
C3
C3
E7
3C
ENDCHAR
STARTCHAR ogonek
ENCODING 731
SWIDTH 527 0
DWIDTH 17 0
BBX 7 6 5 -6
BITMAP
38
60
C0
C0
C2
7E
ENDCHAR
STARTCHAR tilde
ENCODING 732
SWIDTH 527 0
DWIDTH 17 0
BBX 11 3 3 18
BITMAP
7C20
FFE0
C7C0
ENDCHAR
STARTCHAR hungarumlaut
ENCODING 733
SWIDTH 527 0
DWIDTH 17 0
BBX 11 4 4 18
BITMAP
1040
38E0
6180
C300
ENDCHAR
STARTCHAR commaaccent
ENCODING 806
SWIDTH 527 0
DWIDTH 17 0
BBX 3 4 7 -6
BITMAP
60
E0
C0
C0
ENDCHAR
STARTCHAR mu
ENCODING 956
SWIDTH 705 0
DWIDTH 23 0
BBX 18 21 1 -6
BITMAP
0C00C0
0C00C0
1801C0
180180
180180
180180
180180
100380
300300
300300
300700
380F00
3C3B00
6FF300
63C180
600000
600000
600000
C00000
C00000
C00000
ENDCHAR
STARTCHAR Wgrave
ENCODING 7808
SWIDTH 1266 0
DWIDTH 41 0
BBX 39 29 1 0
BITMAP
0003000000
0003C00000
0001F00000
00003C0000
0000080000
0000000000
0000000000
E00038000E
600038000C
70006C001C
30006C0018
3000EE0018
1800C60030
1800C60030
1801830030
0C01830060
0C01830060
06030180C0
06030180C0
060701C0C0
030600C180
030600C180
038C006380
018C006300
018C006300
00D8003600
00D8003600
00F8003E00
0070001C00
ENDCHAR
STARTCHAR wgrave
ENCODING 7809
SWIDTH 1266 0
DWIDTH 41 0
BBX 39 29 1 0
BITMAP
0003000000
0003C00000
0001F00000
00003C0000
0000080000
0000000000
0000000000
E00038000E
600038000C
70006C001C
30006C0018
3000EE0018
1800C60030
1800C60030
1801830030
0C01830060
0C01830060
06030180C0
06030180C0
060701C0C0
030600C180
030600C180
038C006380
018C006300
018C006300
00D8003600
00D8003600
00F8003E00
0070001C00
ENDCHAR
STARTCHAR Wacute
ENCODING 7810
SWIDTH 1266 0
DWIDTH 41 0
BBX 39 29 1 0
BITMAP
0000010000
0000078000
00000E0000
0000380000
0000200000
0000000000
0000000000
E00038000E
600038000C
70006C001C
30006C0018
3000EE0018
1800C60030
1800C60030
1801830030
0C01830060
0C01830060
06030180C0
06030180C0
060701C0C0
030600C180
030600C180
038C006380
018C006300
018C006300
00D8003600
00D8003600
00F8003E00
0070001C00
ENDCHAR
STARTCHAR wacute
ENCODING 7811
SWIDTH 1266 0
DWIDTH 41 0
BBX 39 29 1 0
BITMAP
0000010000
0000078000
00000E0000
0000380000
0000200000
0000000000
0000000000
E00038000E
600038000C
70006C001C
30006C0018
3000EE0018
1800C60030
1800C60030
1801830030
0C01830060
0C01830060
06030180C0
06030180C0
060701C0C0
030600C180
030600C180
038C006380
018C006300
018C006300
00D8003600
00D8003600
00F8003E00
0070001C00
ENDCHAR
STARTCHAR Wdieresis
ENCODING 7812
SWIDTH 1266 0
DWIDTH 41 0
BBX 39 26 1 0
BITMAP
0001860000
0001860000
0000000000
0000000000
E00038000E
600038000C
70006C001C
30006C0018
3000EE0018
1800C60030
1800C60030
1801830030
0C01830060
0C01830060
06030180C0
06030180C0
060701C0C0
030600C180
030600C180
038C006380
018C006300
018C006300
00D8003600
00D8003600
00F8003E00
0070001C00
ENDCHAR
STARTCHAR wdieresis
ENCODING 7813
SWIDTH 1266 0
DWIDTH 41 0
BBX 39 26 1 0
BITMAP
0001860000
0001860000
0000000000
0000000000
E00038000E
600038000C
70006C001C
30006C0018
3000EE0018
1800C60030
1800C60030
1801830030
0C01830060
0C01830060
06030180C0
06030180C0
060701C0C0
030600C180
030600C180
038C006380
018C006300
018C006300
00D8003600
00D8003600
00F8003E00
0070001C00
ENDCHAR
STARTCHAR Ygrave
ENCODING 7922
SWIDTH 763 0
DWIDTH 24 0
BBX 22 29 1 0
BITMAP
030000
03C000
01F000
003C00
000800
000000
000000
E0001C
600018
300030
180060
1C00E0
0E01C0
060180
030300
018600
01CE00
00FC00
007800
003000
003000
003000
003000
003000
003000
003000
003000
003000
003000
ENDCHAR
STARTCHAR ygrave
ENCODING 7923
SWIDTH 911 0
DWIDTH 29 0
BBX 23 29 3 0
BITMAP
030000
03C000
01E000
003800
000C00
000000
000000
C00006
C00006
C00006
C00006
C00006
C00006
C00006
C00006
E0000E
60001E
700036
3800E6
1E03C6
0FFF86
03FC06
000006
00000C
00001C
800078
F801F0
7FFFC0
07FE00
ENDCHAR
STARTCHAR endash
ENCODING 8211
SWIDTH 419 0
DWIDTH 13 0
BBX 12 2 1 10
BITMAP
FFF0
FFF0
ENDCHAR
STARTCHAR emdash
ENCODING 8212
SWIDTH 1000 0
DWIDTH 32 0
BBX 32 2 0 10
BITMAP
FFFFFFFF
FFFFFFFF
ENDCHAR
STARTCHAR quoteleft
ENCODING 8216
SWIDTH 163 0
DWIDTH 5 0
BBX 3 6 1 16
BITMAP
60
60
60
40
C0
C0
ENDCHAR
STARTCHAR quoteright
ENCODING 8217
SWIDTH 163 0
DWIDTH 5 0
BBX 3 6 1 16
BITMAP
60
60
40
C0
C0
C0
ENDCHAR
STARTCHAR quotesinglbase
ENCODING 8218
SWIDTH 163 0
DWIDTH 5 0
BBX 3 6 1 -3
BITMAP
60
60
40
C0
C0
C0
ENDCHAR
STARTCHAR quotedblleft
ENCODING 8220
SWIDTH 303 0
DWIDTH 10 0
BBX 7 6 1 16
BITMAP
66
66
66
44
CC
CC
ENDCHAR
STARTCHAR quotedblright
ENCODING 8221
SWIDTH 303 0
DWIDTH 10 0
BBX 7 6 1 16
BITMAP
66
66
44
CC
CC
CC
ENDCHAR
STARTCHAR quotedblbase
ENCODING 8222
SWIDTH 303 0
DWIDTH 10 0
BBX 7 6 1 -3
BITMAP
66
66
44
CC
CC
CC
ENDCHAR
STARTCHAR dagger
ENCODING 8224
SWIDTH 500 0
DWIDTH 16 0
BBX 10 22 3 0
BITMAP
0C00
0C00
0C00
0C00
0C00
0C00
FFC0
FFC0
0C00
0C00
0C00
0C00
0C00
0C00
0C00
0C00
0C00
0C00
0C00
0C00
0C00
0C00
ENDCHAR
STARTCHAR daggerdbl
ENCODING 8225
SWIDTH 500 0
DWIDTH 16 0
BBX 10 22 3 0
BITMAP
0C00
0C00
0C00
0C00
0C00
0C00
FFC0
FFC0
0C00
0C00
0C00
0C00
0C00
FFC0
FFC0
0C00
0C00
0C00
0C00
0C00
0C00
0C00
ENDCHAR
STARTCHAR bullet
ENCODING 8226
SWIDTH 352 0
DWIDTH 11 0
BBX 6 6 3 8
BITMAP
78
FC
FC
FC
FC
78
ENDCHAR
STARTCHAR ellipsis
ENCODING 8230
SWIDTH 555 0
DWIDTH 18 0
BBX 15 3 2 0
BITMAP
E38E
E38E
E38E
ENDCHAR
STARTCHAR perthousand
ENCODING 8240
SWIDTH 1401 0
DWIDTH 45 0
BBX 41 22 2 0
BITMAP
1F8006000000
30C00C000000
606018000000
C03030000000
C03030000000
C03060000000
C030C0000000
C03180000000
606300000000
30C300000000
1F8600000000
000C3F00FC00
001861818600
0018C0C30300
003180660180
006180660180
00C180660180
018180660180
018180660180
0300C0C30300
060061818600
0C003F00FC00
ENDCHAR
STARTCHAR guilsinglleft
ENCODING 8249
SWIDTH 257 0
DWIDTH 8 0
BBX 6 11 1 5
BITMAP
08
1C
38
70
E0
C0
E0
70
38
1C
08
ENDCHAR
STARTCHAR guilsinglright
ENCODING 8250
SWIDTH 257 0
DWIDTH 8 0
BBX 6 11 1 5
BITMAP
40
E0
70
38
1C
0C
1C
38
70
E0
40
ENDCHAR
STARTCHAR fraction
ENCODING 8260
SWIDTH 200 0
DWIDTH 6 0
BBX 19 22 -6 0
BITMAP
000060
0000C0
000180
000300
000300
000600
000C00
001800
003000
003000
006000
00C000
018000
018000
030000
060000
0C0000
180000
180000
300000
600000
C00000
ENDCHAR
STARTCHAR Euro
ENCODING 8364
SWIDTH 833 0
DWIDTH 27 0
BBX 23 22 1 0
BITMAP
001FE0
00FFFC
01E03E
038006
070002
0E0000
0C0000
0C0000
FFFFC0
FFFFC0
180000
180000
FFFF00
FFFF00
180000
0C0000
0E0000
060002
038006
01E03E
00FFFC
001FE0
ENDCHAR
STARTCHAR trademark
ENCODING 8482
SWIDTH 773 0
DWIDTH 25 0
BBX 21 9 1 13
BITMAP
FE6018
106018
107038
105868
104848
104CC8
104488
104308
104308
ENDCHAR
STARTCHAR partialdiff
ENCODING 8706
SWIDTH 790 0
DWIDTH 25 0
BBX 21 22 2 0
BITMAP
01FE00
07FF80
0601E0
000060
000030
000030
000018
000018
03FC18
0FFF18
3E03D8
7000F8
600078
C00038
C00030
C00030
C00060
E000E0
7001C0
3C0F80
1FFE00
07F800
ENDCHAR
STARTCHAR minus
ENCODING 8722
SWIDTH 634 0
DWIDTH 20 0
BBX 15 2 3 10
BITMAP
FFFE
FFFE
ENDCHAR
STARTCHAR uni2215
ENCODING 8725
SWIDTH 200 0
DWIDTH 6 0
BBX 19 22 -6 0
BITMAP
000060
0000C0
000180
000300
000300
000600
000C00
001800
003000
003000
006000
00C000
018000
018000
030000
060000
0C0000
180000
180000
300000
600000
C00000
ENDCHAR
STARTCHAR approxequal
ENCODING 8776
SWIDTH 634 0
DWIDTH 20 0
BBX 15 8 2 7
BITMAP
7F02
FFFE
81FC
0000
0000
7F02
FFFE
81FC
ENDCHAR
STARTCHAR notequal
ENCODING 8800
SWIDTH 634 0
DWIDTH 20 0
BBX 15 18 3 2
BITMAP
0060
0060
00C0
00C0
00C0
FFFE
FFFE
0180
0180
0300
0300
FFFE
FFFE
0600
0600
0600
0C00
0C00
ENDCHAR
STARTCHAR lessequal
ENCODING 8804
SWIDTH 634 0
DWIDTH 20 0
BBX 15 16 2 2
BITMAP
0002
001E
007C
03E0
0F00
7800
C000
7800
0F00
03E0
007C
001E
0002
0000
FFFE
FFFE
ENDCHAR
STARTCHAR greaterequal
ENCODING 8805
SWIDTH 634 0
DWIDTH 20 0
BBX 15 16 3 2
BITMAP
8000
F000
7C00
0F80
01E0
003C
0006
003C
01E0
0F80
7C00
F000
8000
0000
FFFE
FFFE
ENDCHAR
STARTCHAR fi
ENCODING 64257
SWIDTH 1104 0
DWIDTH 35 0
BBX 29 22 3 0
BITMAP
03FFF818
1FFFF818
3C000018
70000018
E0000018
C0000018
C0000018
C0000018
C0000018
C0000018
FFFFF818
FFFFF818
C0000018
C0000018
C0000018
C0000018
C0000018
C0000018
C0000018
C0000018
C0000018
C0000018
ENDCHAR
STARTCHAR fl
ENCODING 64258
SWIDTH 1527 0
DWIDTH 49 0
BBX 46 22 3 0
BITMAP
03FFF8180000
1FFFF8180000
3C0000180000
700000180000
E00000180000
C00000180000
C00000180000
C00000180000
C00000180000
C00000180000
FFFFF8180000
FFFFF8180000
C00000180000
C00000180000
C00000180000
C00000180000
C00000180000
C000001C0000
C000000C0000
C000000F0000
C0000007FFFC
C0000001FFFC
ENDCHAR
STARTCHAR .notdef
ENCODING -1
SWIDTH 1000 0
DWIDTH 32 0
BBX 1 1 0 0
BITMAP
00
ENDCHAR
ENDFONT
